<svg width="800" height="800" fill="none" xmlns="http://www.w3.org/2000/svg"><rect width="800" height="800" rx="20" fill="url(#a)"/><path d="M135.839 636h-7.524l-22.638-34.254V636h-7.524v-45.936h7.524l22.638 34.188v-34.188h7.524V636zm25.655.594c-3.432 0-6.534-.77-9.306-2.31-2.772-1.584-4.95-3.784-6.534-6.6-1.584-2.86-2.376-6.16-2.376-9.9 0-3.696.814-6.974 2.442-9.834 1.628-2.86 3.85-5.06 6.666-6.6 2.816-1.54 5.962-2.31 9.438-2.31 3.476 0 6.622.77 9.438 2.31 2.816 1.54 5.038 3.74 6.666 6.6 1.628 2.86 2.442 6.138 2.442 9.834 0 3.696-.836 6.974-2.508 9.834-1.672 2.86-3.96 5.082-6.864 6.666-2.86 1.54-6.028 2.31-9.504 2.31zm0-6.534c1.936 0 3.74-.462 5.412-1.386 1.716-.924 3.102-2.31 4.158-4.158 1.056-1.848 1.584-4.092 1.584-6.732 0-2.64-.506-4.862-1.518-6.666-1.012-1.848-2.354-3.234-4.026-4.158a11.01 11.01 0 0 0-5.412-1.386c-1.936 0-3.74.462-5.412 1.386-1.628.924-2.926 2.31-3.894 4.158-.968 1.804-1.452 4.026-1.452 6.666 0 3.916.99 6.952 2.97 9.108 2.024 2.112 4.554 3.168 7.59 3.168zm33.837-25.146c1.1-1.848 2.552-3.278 4.356-4.29 1.848-1.056 4.026-1.584 6.534-1.584v7.788h-1.914c-2.948 0-5.192.748-6.732 2.244-1.496 1.496-2.244 4.092-2.244 7.788V636h-7.524v-36.366h7.524v5.28zm61.829-5.874c2.86 0 5.412.594 7.656 1.782 2.288 1.188 4.07 2.948 5.346 5.28 1.32 2.332 1.98 5.148 1.98 8.448V636h-7.458v-20.328c0-3.256-.814-5.742-2.442-7.458-1.628-1.76-3.85-2.64-6.666-2.64-2.816 0-5.06.88-6.732 2.64-1.628 1.716-2.442 4.202-2.442 7.458V636h-7.458v-20.328c0-3.256-.814-5.742-2.442-7.458-1.628-1.76-3.85-2.64-6.666-2.64-2.816 0-5.06.88-6.732 2.64-1.628 1.716-2.442 4.202-2.442 7.458V636h-7.524v-36.366h7.524v4.158c1.232-1.496 2.794-2.662 4.686-3.498 1.892-.836 3.916-1.254 6.072-1.254 2.904 0 5.5.616 7.788 1.848 2.288 1.232 4.048 3.014 5.28 5.346 1.1-2.2 2.816-3.938 5.148-5.214a15.026 15.026 0 0 1 7.524-1.98zm22.048 18.612c0-3.652.748-6.886 2.244-9.702 1.54-2.816 3.608-4.994 6.204-6.534 2.64-1.584 5.544-2.376 8.712-2.376 2.86 0 5.346.572 7.458 1.716 2.156 1.1 3.872 2.486 5.148 4.158v-5.28h7.59V636h-7.59v-5.412c-1.276 1.716-3.014 3.146-5.214 4.29-2.2 1.144-4.708 1.716-7.524 1.716-3.124 0-5.984-.792-8.58-2.376-2.596-1.628-4.664-3.872-6.204-6.732-1.496-2.904-2.244-6.182-2.244-9.834zm29.766.132c0-2.508-.528-4.686-1.584-6.534-1.012-1.848-2.354-3.256-4.026-4.224a10.62 10.62 0 0 0-5.412-1.452c-1.936 0-3.74.484-5.412 1.452-1.672.924-3.036 2.31-4.092 4.158-1.012 1.804-1.518 3.96-1.518 6.468s.506 4.708 1.518 6.6c1.056 1.892 2.42 3.344 4.092 4.356 1.716.968 3.52 1.452 5.412 1.452 1.936 0 3.74-.484 5.412-1.452 1.672-.968 3.014-2.376 4.026-4.224 1.056-1.892 1.584-4.092 1.584-6.6zm24.996-30.624V636h-7.524v-48.84h7.524zm63.653 2.97V636h-7.524v-20.064h-21.582V636h-7.524v-45.87h7.524v19.668h21.582V590.13h7.524zm43.235 26.796c0 1.364-.088 2.596-.264 3.696h-27.786c.22 2.904 1.298 5.236 3.234 6.996 1.936 1.76 4.312 2.64 7.128 2.64 4.048 0 6.908-1.694 8.58-5.082h8.118c-1.1 3.344-3.102 6.094-6.006 8.25-2.86 2.112-6.424 3.168-10.692 3.168-3.476 0-6.6-.77-9.372-2.31-2.728-1.584-4.884-3.784-6.468-6.6-1.54-2.86-2.31-6.16-2.31-9.9s.748-7.018 2.244-9.834c1.54-2.86 3.674-5.06 6.402-6.6 2.772-1.54 5.94-2.31 9.504-2.31 3.432 0 6.49.748 9.174 2.244 2.684 1.496 4.774 3.608 6.27 6.336 1.496 2.684 2.244 5.786 2.244 9.306zm-7.854-2.376c-.044-2.772-1.034-4.994-2.97-6.666-1.936-1.672-4.334-2.508-7.194-2.508-2.596 0-4.818.836-6.666 2.508-1.848 1.628-2.948 3.85-3.3 6.666h20.13zm12.751 3.102c0-3.652.748-6.886 2.244-9.702 1.54-2.816 3.608-4.994 6.204-6.534 2.64-1.584 5.544-2.376 8.712-2.376 2.86 0 5.346.572 7.458 1.716 2.156 1.1 3.872 2.486 5.148 4.158v-5.28h7.59V636h-7.59v-5.412c-1.276 1.716-3.014 3.146-5.214 4.29-2.2 1.144-4.708 1.716-7.524 1.716-3.124 0-5.984-.792-8.58-2.376-2.596-1.628-4.664-3.872-6.204-6.732-1.496-2.904-2.244-6.182-2.244-9.834zm29.766.132c0-2.508-.528-4.686-1.584-6.534-1.012-1.848-2.354-3.256-4.026-4.224a10.62 10.62 0 0 0-5.412-1.452c-1.936 0-3.74.484-5.412 1.452-1.672.924-3.036 2.31-4.092 4.158-1.012 1.804-1.518 3.96-1.518 6.468s.506 4.708 1.518 6.6c1.056 1.892 2.42 3.344 4.092 4.356 1.716.968 3.52 1.452 5.412 1.452 1.936 0 3.74-.484 5.412-1.452 1.672-.968 3.014-2.376 4.026-4.224 1.056-1.892 1.584-4.092 1.584-6.6zm24.996-12.87c1.1-1.848 2.552-3.278 4.356-4.29 1.848-1.056 4.026-1.584 6.534-1.584v7.788h-1.914c-2.948 0-5.192.748-6.732 2.244-1.496 1.496-2.244 4.092-2.244 7.788V636h-7.524v-36.366h7.524v5.28zm26.584.858v20.13c0 1.364.308 2.354.924 2.97.66.572 1.76.858 3.3.858h4.62V636h-5.94c-3.388 0-5.984-.792-7.788-2.376-1.804-1.584-2.706-4.158-2.706-7.722v-20.13h-4.29v-6.138h4.29v-9.042h7.59v9.042h8.844v6.138h-8.844zM583.85 636l-10.56-18.348h-5.742V636h-7.524v-45.87h15.84c3.52 0 6.49.616 8.91 1.848 2.464 1.232 4.29 2.882 5.478 4.95 1.232 2.068 1.848 4.378 1.848 6.93 0 2.992-.88 5.72-2.64 8.184-1.716 2.42-4.378 4.07-7.986 4.95L592.826 636h-8.976zm-16.302-24.354h8.316c2.816 0 4.928-.704 6.336-2.112 1.452-1.408 2.178-3.3 2.178-5.676 0-2.376-.704-4.224-2.112-5.544-1.408-1.364-3.542-2.046-6.402-2.046h-8.316v15.378zm31.669 6.006c0-3.652.748-6.886 2.244-9.702 1.54-2.816 3.608-4.994 6.204-6.534 2.64-1.584 5.544-2.376 8.712-2.376 2.86 0 5.346.572 7.458 1.716 2.156 1.1 3.872 2.486 5.148 4.158v-5.28h7.59V636h-7.59v-5.412c-1.276 1.716-3.014 3.146-5.214 4.29-2.2 1.144-4.708 1.716-7.524 1.716-3.124 0-5.984-.792-8.58-2.376-2.596-1.628-4.664-3.872-6.204-6.732-1.496-2.904-2.244-6.182-2.244-9.834zm29.766.132c0-2.508-.528-4.686-1.584-6.534-1.012-1.848-2.354-3.256-4.026-4.224a10.62 10.62 0 0 0-5.412-1.452c-1.936 0-3.74.484-5.412 1.452-1.672.924-3.036 2.31-4.092 4.158-1.012 1.804-1.518 3.96-1.518 6.468s.506 4.708 1.518 6.6c1.056 1.892 2.42 3.344 4.092 4.356 1.716.968 3.52 1.452 5.412 1.452 1.936 0 3.74-.484 5.412-1.452 1.672-.968 3.014-2.376 4.026-4.224 1.056-1.892 1.584-4.092 1.584-6.6zm26.251-12.012v20.13c0 1.364.308 2.354.924 2.97.66.572 1.76.858 3.3.858h4.62V636h-5.94c-3.388 0-5.984-.792-7.788-2.376-1.804-1.584-2.706-4.158-2.706-7.722v-20.13h-4.29v-6.138h4.29v-9.042h7.59v9.042h8.844v6.138h-8.844zm49.109 11.154c0 1.364-.088 2.596-.264 3.696h-27.786c.22 2.904 1.298 5.236 3.234 6.996 1.936 1.76 4.312 2.64 7.128 2.64 4.048 0 6.908-1.694 8.58-5.082h8.117c-1.099 3.344-3.101 6.094-6.005 8.25-2.86 2.112-6.424 3.168-10.692 3.168-3.476 0-6.6-.77-9.372-2.31-2.728-1.584-4.884-3.784-6.468-6.6-1.54-2.86-2.31-6.16-2.31-9.9s.748-7.018 2.244-9.834c1.54-2.86 3.674-5.06 6.402-6.6 2.772-1.54 5.94-2.31 9.504-2.31 3.432 0 6.49.748 9.174 2.244 2.684 1.496 4.774 3.608 6.27 6.336 1.496 2.684 2.244 5.786 2.244 9.306zm-7.854-2.376c-.044-2.772-1.034-4.994-2.97-6.666-1.936-1.672-4.334-2.508-7.194-2.508-2.596 0-4.818.836-6.666 2.508-1.848 1.628-2.948 3.85-3.3 6.666h20.13zM176 671.5l-4.127 2.374-11.246 6.502-4.127 2.374v22.5l4.127 2.374 11.349 6.502 4.127 2.374 4.127-2.374 11.143-6.502 4.127-2.374v-22.5l-4.127-2.374-11.246-6.502L176 671.5zm-11.246 29.002v-13.004L176 680.995l11.246 6.503v13.004L176 707.005l-11.246-6.503zM239.777 682.088V707h-3.276v-18.576L228.221 707h-2.304l-8.316-18.612V707h-3.276v-24.912h3.528l9.216 20.592 9.216-20.592h3.492zm23.556 14.292c0 .624-.036 1.284-.108 1.98h-15.768c.12 1.944.78 3.468 1.98 4.572 1.224 1.08 2.7 1.62 4.428 1.62 1.416 0 2.592-.324 3.528-.972a5.302 5.302 0 0 0 2.016-2.664h3.528c-.528 1.896-1.584 3.444-3.168 4.644-1.584 1.176-3.552 1.764-5.904 1.764-1.872 0-3.552-.42-5.04-1.26-1.464-.84-2.616-2.028-3.456-3.564-.84-1.56-1.26-3.36-1.26-5.4 0-2.04.408-3.828 1.224-5.364.816-1.536 1.956-2.712 3.42-3.528 1.488-.84 3.192-1.26 5.112-1.26 1.872 0 3.528.408 4.968 1.224a8.324 8.324 0 0 1 3.312 3.384c.792 1.416 1.188 3.024 1.188 4.824zm-3.384-.684c0-1.248-.276-2.316-.828-3.204a5.21 5.21 0 0 0-2.268-2.052c-.936-.48-1.98-.72-3.132-.72-1.656 0-3.072.528-4.248 1.584-1.152 1.056-1.812 2.52-1.98 4.392h12.456zm6.484 1.368c0-2.016.408-3.78 1.224-5.292.816-1.536 1.932-2.724 3.348-3.564 1.44-.84 3.048-1.26 4.824-1.26 1.536 0 2.964.36 4.284 1.08 1.32.696 2.328 1.62 3.024 2.772v-10.44h3.312V707h-3.312v-3.708c-.648 1.176-1.608 2.148-2.88 2.916-1.272.744-2.76 1.116-4.464 1.116-1.752 0-3.348-.432-4.788-1.296-1.416-.864-2.532-2.076-3.348-3.636-.816-1.56-1.224-3.336-1.224-5.328zm16.704.036c0-1.488-.3-2.784-.9-3.888-.6-1.104-1.416-1.944-2.448-2.52-1.008-.6-2.124-.9-3.348-.9-1.224 0-2.34.288-3.348.864-1.008.576-1.812 1.416-2.412 2.52-.6 1.104-.9 2.4-.9 3.888 0 1.512.3 2.832.9 3.96.6 1.104 1.404 1.956 2.412 2.556 1.008.576 2.124.864 3.348.864 1.224 0 2.34-.288 3.348-.864 1.032-.6 1.848-1.452 2.448-2.556.6-1.128.9-2.436.9-3.924zm10.54-13.032a2.155 2.155 0 0 1-1.584-.648 2.155 2.155 0 0 1-.648-1.584c0-.624.216-1.152.648-1.584.432-.432.96-.648 1.584-.648.6 0 1.104.216 1.512.648.432.432.648.96.648 1.584 0 .624-.216 1.152-.648 1.584a1.997 1.997 0 0 1-1.512.648zm1.584 3.204V707h-3.276v-19.728h3.276zm4.359 9.828c0-2.04.408-3.816 1.224-5.328.816-1.536 1.944-2.724 3.384-3.564 1.464-.84 3.132-1.26 5.004-1.26 2.424 0 4.416.588 5.976 1.764 1.584 1.176 2.628 2.808 3.132 4.896h-3.528c-.336-1.2-.996-2.148-1.98-2.844-.96-.696-2.16-1.044-3.6-1.044-1.872 0-3.384.648-4.536 1.944-1.152 1.272-1.728 3.084-1.728 5.436 0 2.376.576 4.212 1.728 5.508 1.152 1.296 2.664 1.944 4.536 1.944 1.44 0 2.64-.336 3.6-1.008.96-.672 1.62-1.632 1.98-2.88h3.528c-.528 2.016-1.584 3.636-3.168 4.86-1.584 1.2-3.564 1.8-5.94 1.8-1.872 0-3.54-.42-5.004-1.26-1.44-.84-2.568-2.028-3.384-3.564-.816-1.536-1.224-3.336-1.224-5.4zm21.867-.036c0-2.016.408-3.78 1.224-5.292.816-1.536 1.932-2.724 3.348-3.564 1.44-.84 3.036-1.26 4.788-1.26 1.728 0 3.228.372 4.5 1.116 1.272.744 2.22 1.68 2.844 2.808v-3.6h3.312V707h-3.312v-3.672c-.648 1.152-1.62 2.112-2.916 2.88-1.272.744-2.76 1.116-4.464 1.116-1.752 0-3.336-.432-4.752-1.296-1.416-.864-2.532-2.076-3.348-3.636-.816-1.56-1.224-3.336-1.224-5.328zm16.704.036c0-1.488-.3-2.784-.9-3.888-.6-1.104-1.416-1.944-2.448-2.52-1.008-.6-2.124-.9-3.348-.9-1.224 0-2.34.288-3.348.864-1.008.576-1.812 1.416-2.412 2.52-.6 1.104-.9 2.4-.9 3.888 0 1.512.3 2.832.9 3.96.6 1.104 1.404 1.956 2.412 2.556 1.008.576 2.124.864 3.348.864 1.224 0 2.34-.288 3.348-.864 1.032-.6 1.848-1.452 2.448-2.556.6-1.128.9-2.436.9-3.924zm12.125-16.74V707h-3.276v-26.64h3.276zm13.957 16.704c0-2.016.408-3.78 1.224-5.292.816-1.536 1.932-2.724 3.348-3.564 1.44-.84 3.048-1.26 4.824-1.26 1.536 0 2.964.36 4.284 1.08 1.32.696 2.328 1.62 3.024 2.772v-10.44h3.312V707h-3.312v-3.708c-.648 1.176-1.608 2.148-2.88 2.916-1.272.744-2.76 1.116-4.464 1.116-1.752 0-3.348-.432-4.788-1.296-1.416-.864-2.532-2.076-3.348-3.636-.816-1.56-1.224-3.336-1.224-5.328zm16.704.036c0-1.488-.3-2.784-.9-3.888-.6-1.104-1.416-1.944-2.448-2.52-1.008-.6-2.124-.9-3.348-.9-1.224 0-2.34.288-3.348.864-1.008.576-1.812 1.416-2.412 2.52-.6 1.104-.9 2.4-.9 3.888 0 1.512.3 2.832.9 3.96.6 1.104 1.404 1.956 2.412 2.556 1.008.576 2.124.864 3.348.864 1.224 0 2.34-.288 3.348-.864 1.032-.6 1.848-1.452 2.448-2.556.6-1.128.9-2.436.9-3.924zm7.624-.036c0-2.016.408-3.78 1.224-5.292.816-1.536 1.932-2.724 3.348-3.564 1.44-.84 3.036-1.26 4.788-1.26 1.728 0 3.228.372 4.5 1.116 1.272.744 2.22 1.68 2.844 2.808v-3.6h3.312V707h-3.312v-3.672c-.648 1.152-1.62 2.112-2.916 2.88-1.272.744-2.76 1.116-4.464 1.116-1.752 0-3.336-.432-4.752-1.296-1.416-.864-2.532-2.076-3.348-3.636-.816-1.56-1.224-3.336-1.224-5.328zm16.704.036c0-1.488-.3-2.784-.9-3.888-.6-1.104-1.416-1.944-2.448-2.52-1.008-.6-2.124-.9-3.348-.9-1.224 0-2.34.288-3.348.864-1.008.576-1.812 1.416-2.412 2.52-.6 1.104-.9 2.4-.9 3.888 0 1.512.3 2.832.9 3.96.6 1.104 1.404 1.956 2.412 2.556 1.008.576 2.124.864 3.348.864 1.224 0 2.34-.288 3.348-.864 1.032-.6 1.848-1.452 2.448-2.556.6-1.128.9-2.436.9-3.924zm12.844-7.128V701.6c0 .96.204 1.644.612 2.052.408.384 1.116.576 2.124.576h2.412V707h-2.952c-1.824 0-3.192-.42-4.104-1.26-.912-.84-1.368-2.22-1.368-4.14v-11.628h-2.556v-2.7h2.556v-4.968h3.276v4.968h5.148v2.7h-5.148zm7.893 7.092c0-2.016.408-3.78 1.224-5.292.816-1.536 1.932-2.724 3.348-3.564 1.44-.84 3.036-1.26 4.788-1.26 1.728 0 3.228.372 4.5 1.116 1.272.744 2.22 1.68 2.844 2.808v-3.6h3.312V707h-3.312v-3.672c-.648 1.152-1.62 2.112-2.916 2.88-1.272.744-2.76 1.116-4.464 1.116-1.752 0-3.336-.432-4.752-1.296-1.416-.864-2.532-2.076-3.348-3.636-.816-1.56-1.224-3.336-1.224-5.328zm16.704.036c0-1.488-.3-2.784-.9-3.888-.6-1.104-1.416-1.944-2.448-2.52-1.008-.6-2.124-.9-3.348-.9-1.224 0-2.34.288-3.348.864-1.008.576-1.812 1.416-2.412 2.52-.6 1.104-.9 2.4-.9 3.888 0 1.512.3 2.832.9 3.96.6 1.104 1.404 1.956 2.412 2.556 1.008.576 2.124.864 3.348.864 1.224 0 2.34-.288 3.348-.864 1.032-.6 1.848-1.452 2.448-2.556.6-1.128.9-2.436.9-3.924zm36.446-.72c0 .624-.036 1.284-.108 1.98h-15.768c.12 1.944.78 3.468 1.98 4.572 1.224 1.08 2.7 1.62 4.428 1.62 1.416 0 2.592-.324 3.528-.972a5.302 5.302 0 0 0 2.016-2.664h3.528c-.528 1.896-1.584 3.444-3.168 4.644-1.584 1.176-3.552 1.764-5.904 1.764-1.872 0-3.552-.42-5.04-1.26-1.464-.84-2.616-2.028-3.456-3.564-.84-1.56-1.26-3.36-1.26-5.4 0-2.04.408-3.828 1.224-5.364.816-1.536 1.956-2.712 3.42-3.528 1.488-.84 3.192-1.26 5.112-1.26 1.872 0 3.528.408 4.968 1.224a8.324 8.324 0 0 1 3.312 3.384c.792 1.416 1.188 3.024 1.188 4.824zm-3.384-.684c0-1.248-.276-2.316-.828-3.204a5.21 5.21 0 0 0-2.268-2.052c-.936-.48-1.98-.72-3.132-.72-1.656 0-3.072.528-4.248 1.584-1.152 1.056-1.812 2.52-1.98 4.392h12.456zm17.32-8.784c2.4 0 4.344.732 5.832 2.196 1.488 1.44 2.232 3.528 2.232 6.264V707h-3.24v-11.16c0-1.968-.492-3.468-1.476-4.5-.984-1.056-2.328-1.584-4.032-1.584-1.728 0-3.108.54-4.14 1.62-1.008 1.08-1.512 2.652-1.512 4.716V707h-3.276v-19.728h3.276v2.808a6.531 6.531 0 0 1 2.628-2.34c1.128-.552 2.364-.828 3.708-.828zm12.191 10.188c0-2.04.408-3.816 1.224-5.328.816-1.536 1.944-2.724 3.384-3.564 1.464-.84 3.132-1.26 5.004-1.26 2.424 0 4.416.588 5.976 1.764 1.584 1.176 2.628 2.808 3.132 4.896h-3.528c-.336-1.2-.996-2.148-1.98-2.844-.96-.696-2.16-1.044-3.6-1.044-1.872 0-3.384.648-4.536 1.944-1.152 1.272-1.728 3.084-1.728 5.436 0 2.376.576 4.212 1.728 5.508 1.152 1.296 2.664 1.944 4.536 1.944 1.44 0 2.64-.336 3.6-1.008.96-.672 1.62-1.632 1.98-2.88h3.528c-.528 2.016-1.584 3.636-3.168 4.86-1.584 1.2-3.564 1.8-5.94 1.8-1.872 0-3.54-.42-5.004-1.26-1.44-.84-2.568-2.028-3.384-3.564-.816-1.536-1.224-3.336-1.224-5.4zm26.368-6.624c.576-1.128 1.392-2.004 2.448-2.628 1.08-.624 2.388-.936 3.924-.936v3.384h-.864c-3.672 0-5.508 1.992-5.508 5.976V707h-3.276v-19.728h3.276v3.204zm27.145-3.204-11.88 29.016h-3.384l3.888-9.504-7.956-19.512h3.636l6.192 15.984 6.12-15.984h3.384zm6.57 3.636c.648-1.128 1.608-2.064 2.88-2.808 1.296-.768 2.796-1.152 4.5-1.152 1.752 0 3.336.42 4.752 1.26 1.44.84 2.568 2.028 3.384 3.564.816 1.512 1.224 3.276 1.224 5.292 0 1.992-.408 3.768-1.224 5.328-.816 1.56-1.944 2.772-3.384 3.636-1.416.864-3 1.296-4.752 1.296-1.68 0-3.168-.372-4.464-1.116-1.272-.768-2.244-1.716-2.916-2.844v12.996h-3.276v-29.088h3.276v3.636zm13.392 6.156c0-1.488-.3-2.784-.9-3.888-.6-1.104-1.416-1.944-2.448-2.52-1.008-.576-2.124-.864-3.348-.864-1.2 0-2.316.3-3.348.9-1.008.576-1.824 1.428-2.448 2.556-.6 1.104-.9 2.388-.9 3.852 0 1.488.3 2.796.9 3.924.624 1.104 1.44 1.956 2.448 2.556a6.758 6.758 0 0 0 3.348.864c1.224 0 2.34-.288 3.348-.864 1.032-.6 1.848-1.452 2.448-2.556.6-1.128.9-2.448.9-3.96zm11.656-7.092V701.6c0 .96.204 1.644.612 2.052.408.384 1.116.576 2.124.576h2.412V707h-2.952c-1.824 0-3.192-.42-4.104-1.26-.912-.84-1.368-2.22-1.368-4.14v-11.628h-2.556v-2.7h2.556v-4.968h3.276v4.968h5.148v2.7h-5.148zm27.117 6.408c0 .624-.036 1.284-.108 1.98h-15.768c.12 1.944.78 3.468 1.98 4.572 1.224 1.08 2.7 1.62 4.428 1.62 1.416 0 2.592-.324 3.528-.972a5.302 5.302 0 0 0 2.016-2.664h3.528c-.528 1.896-1.584 3.444-3.168 4.644-1.584 1.176-3.552 1.764-5.904 1.764-1.872 0-3.552-.42-5.04-1.26-1.464-.84-2.616-2.028-3.456-3.564-.84-1.56-1.26-3.36-1.26-5.4 0-2.04.408-3.828 1.224-5.364.816-1.536 1.956-2.712 3.42-3.528 1.488-.84 3.192-1.26 5.112-1.26 1.872 0 3.528.408 4.968 1.224a8.324 8.324 0 0 1 3.312 3.384c.792 1.416 1.188 3.024 1.188 4.824zm-3.384-.684c0-1.248-.276-2.316-.828-3.204a5.21 5.21 0 0 0-2.268-2.052c-.936-.48-1.98-.72-3.132-.72-1.656 0-3.072.528-4.248 1.584-1.152 1.056-1.812 2.52-1.98 4.392h12.456zm6.484 1.368c0-2.016.408-3.78 1.224-5.292.816-1.536 1.932-2.724 3.348-3.564 1.44-.84 3.048-1.26 4.824-1.26 1.536 0 2.964.36 4.284 1.08 1.32.696 2.328 1.62 3.024 2.772v-10.44h3.312V707h-3.312v-3.708c-.648 1.176-1.608 2.148-2.88 2.916-1.272.744-2.76 1.116-4.464 1.116-1.752 0-3.348-.432-4.788-1.296-1.416-.864-2.532-2.076-3.348-3.636-.816-1.56-1.224-3.336-1.224-5.328zm16.704.036c0-1.488-.3-2.784-.9-3.888-.6-1.104-1.416-1.944-2.448-2.52-1.008-.6-2.124-.9-3.348-.9-1.224 0-2.34.288-3.348.864-1.008.576-1.812 1.416-2.412 2.52-.6 1.104-.9 2.4-.9 3.888 0 1.512.3 2.832.9 3.96.6 1.104 1.404 1.956 2.412 2.556 1.008.576 2.124.864 3.348.864 1.224 0 2.34-.288 3.348-.864 1.032-.6 1.848-1.452 2.448-2.556.6-1.128.9-2.436.9-3.924zM254.251 113.628V174h-14.706v-36.206L226.043 174h-11.868l-13.588-36.292V174h-14.706v-60.372h17.372l16.942 41.796 16.77-41.796h17.286zm55.811 35.604c0 1.376-.086 2.809-.258 4.3h-33.282c.229 2.981 1.175 5.275 2.838 6.88 1.72 1.548 3.813 2.322 6.278 2.322 3.669 0 6.221-1.548 7.654-4.644h15.652c-.803 3.153-2.265 5.991-4.386 8.514-2.064 2.523-4.673 4.501-7.826 5.934-3.153 1.433-6.679 2.15-10.578 2.15-4.701 0-8.887-1.003-12.556-3.01-3.669-2.007-6.536-4.873-8.6-8.6-2.064-3.727-3.096-8.084-3.096-13.072 0-4.988 1.003-9.345 3.01-13.072 2.064-3.727 4.931-6.593 8.6-8.6 3.669-2.007 7.883-3.01 12.642-3.01 4.644 0 8.772.975 12.384 2.924 3.612 1.949 6.421 4.73 8.428 8.342 2.064 3.612 3.096 7.826 3.096 12.642zm-15.05-3.87c0-2.523-.86-4.529-2.58-6.02-1.72-1.491-3.87-2.236-6.45-2.236-2.465 0-4.558.717-6.278 2.15-1.663 1.433-2.695 3.469-3.096 6.106h18.404zm49.554 16.168V174h-7.482c-5.332 0-9.488-1.29-12.47-3.87-2.981-2.637-4.472-6.909-4.472-12.814v-19.092h-5.848v-12.212h5.848v-11.696h14.706v11.696h9.632v12.212h-9.632v19.264c0 1.433.344 2.465 1.032 3.096.688.631 1.835.946 3.44.946h5.246zm5.268-11.61c0-4.931.917-9.259 2.752-12.986 1.892-3.727 4.443-6.593 7.654-8.6 3.21-2.007 6.794-3.01 10.75-3.01 3.382 0 6.335.688 8.858 2.064 2.58 1.376 4.558 3.182 5.934 5.418v-6.794h14.706V174h-14.706v-6.794c-1.434 2.236-3.44 4.042-6.02 5.418-2.523 1.376-5.476 2.064-8.858 2.064-3.899 0-7.454-1.003-10.664-3.01-3.211-2.064-5.762-4.959-7.654-8.686-1.835-3.784-2.752-8.141-2.752-13.072zm35.948.086c0-3.669-1.032-6.565-3.096-8.686-2.007-2.121-4.472-3.182-7.396-3.182-2.924 0-5.418 1.061-7.482 3.182-2.007 2.064-3.01 4.931-3.01 8.6 0 3.669 1.003 6.593 3.01 8.772 2.064 2.121 4.558 3.182 7.482 3.182 2.924 0 5.389-1.061 7.396-3.182 2.064-2.121 3.096-5.017 3.096-8.686zm22.851-6.278c0-5.963 1.29-11.266 3.87-15.91 2.58-4.701 6.163-8.342 10.75-10.922 4.644-2.637 9.89-3.956 15.738-3.956 7.167 0 13.301 1.892 18.404 5.676 5.103 3.784 8.514 8.944 10.234 15.48h-16.168c-1.204-2.523-2.924-4.443-5.16-5.762-2.179-1.319-4.673-1.978-7.482-1.978-4.529 0-8.199 1.577-11.008 4.73-2.809 3.153-4.214 7.367-4.214 12.642 0 5.275 1.405 9.489 4.214 12.642 2.809 3.153 6.479 4.73 11.008 4.73 2.809 0 5.303-.659 7.482-1.978 2.236-1.319 3.956-3.239 5.16-5.762h16.168c-1.72 6.536-5.131 11.696-10.234 15.48-5.103 3.727-11.237 5.59-18.404 5.59-5.848 0-11.094-1.29-15.738-3.87-4.587-2.637-8.17-6.278-10.75-10.922-2.58-4.644-3.87-9.947-3.87-15.91zm65.078 6.192c0-4.931.917-9.259 2.752-12.986 1.892-3.727 4.443-6.593 7.654-8.6 3.21-2.007 6.794-3.01 10.75-3.01 3.382 0 6.335.688 8.858 2.064 2.58 1.376 4.558 3.182 5.934 5.418v-6.794h14.706V174h-14.706v-6.794c-1.434 2.236-3.44 4.042-6.02 5.418-2.523 1.376-5.476 2.064-8.858 2.064-3.899 0-7.454-1.003-10.664-3.01-3.211-2.064-5.762-4.959-7.654-8.686-1.835-3.784-2.752-8.141-2.752-13.072zm35.948.086c0-3.669-1.032-6.565-3.096-8.686-2.007-2.121-4.472-3.182-7.396-3.182-2.924 0-5.418 1.061-7.482 3.182-2.007 2.064-3.01 4.931-3.01 8.6 0 3.669 1.003 6.593 3.01 8.772 2.064 2.121 4.558 3.182 7.482 3.182 2.924 0 5.389-1.061 7.396-3.182 2.064-2.121 3.096-5.017 3.096-8.686zm40.051-15.996c1.72-2.637 3.87-4.701 6.45-6.192 2.58-1.548 5.447-2.322 8.6-2.322v15.566h-4.042c-3.669 0-6.421.803-8.256 2.408-1.835 1.548-2.752 4.3-2.752 8.256V174h-14.706v-47.988h14.706v7.998zm67.315 15.222c0 1.376-.086 2.809-.258 4.3h-33.282c.229 2.981 1.175 5.275 2.838 6.88 1.72 1.548 3.813 2.322 6.278 2.322 3.669 0 6.221-1.548 7.654-4.644h15.652c-.803 3.153-2.265 5.991-4.386 8.514-2.064 2.523-4.673 4.501-7.826 5.934-3.153 1.433-6.679 2.15-10.578 2.15-4.701 0-8.887-1.003-12.556-3.01-3.669-2.007-6.536-4.873-8.6-8.6-2.064-3.727-3.096-8.084-3.096-13.072 0-4.988 1.003-9.345 3.01-13.072 2.064-3.727 4.931-6.593 8.6-8.6 3.669-2.007 7.883-3.01 12.642-3.01 4.644 0 8.772.975 12.384 2.924 3.612 1.949 6.421 4.73 8.428 8.342 2.064 3.612 3.096 7.826 3.096 12.642zm-15.05-3.87c0-2.523-.86-4.529-2.58-6.02-1.72-1.491-3.87-2.236-6.45-2.236-2.465 0-4.558.717-6.278 2.15-1.663 1.433-2.695 3.469-3.096 6.106h18.404z" fill="#fff"/><path d="M264.86 354.632c-3.19-22.325 2.278-44.651 20.051-62.753 16.558-16.744 40.559-29.566 68.965-23.231 23.09 5.129 37.977 21.27 44.053 29.567 1.367 1.81 4.101 1.81 5.468 0 6.229-8.146 20.963-24.287 44.053-29.567 28.406-6.335 52.407 6.487 68.965 23.231 44.812 45.255 10.937 116.908-38.128 149.944-20.204 13.577-50.889 35.148-65.168 49.026-4.101 3.922-7.443 7.542-9.874 10.408-1.367 1.509-3.645 1.509-5.012 0-2.431-2.866-5.773-6.486-9.874-10.408-14.279-13.727-45.116-35.299-65.168-49.026-17.165-11.615-29.773-23.532-40.558-41.785" stroke="#fff" stroke-width="10" stroke-miterlimit="10" stroke-linecap="round" stroke-linejoin="round"/><path d="M271.236 378.167h40.255l12-19.309 16.254 43.596 19.14-96.695 22.027 125.205 27.495-76.631 16.405 48.422 14.583-24.588h37.521" stroke="#fff" stroke-width="10" stroke-miterlimit="10" stroke-linecap="round" stroke-linejoin="round"/><path d="M476.913 390.08c6.626 0 11.997-5.335 11.997-11.917 0-6.581-5.371-11.917-11.997-11.917-6.626 0-11.997 5.336-11.997 11.917 0 6.582 5.371 11.917 11.997 11.917z" fill="#fff"/><defs><linearGradient id="a" x1="116" y1="41" x2="452" y2="800" gradientUnits="userSpaceOnUse"><stop stop-color="#2370B9"/><stop offset="1" stop-color="#1768B4"/></linearGradient></defs></svg>