<svg width="800" height="800" viewBox="0 0 800 800" fill="none" xmlns="http://www.w3.org/2000/svg">
<rect width="800" height="800" rx="20" fill="url(#paint0_linear_1_43)"/>
<path d="M192.895 612.438C195.359 612.878 197.449 614.176 199.165 616.332C200.881 618.488 201.739 620.93 201.739 623.658C201.739 625.99 201.123 628.102 199.891 629.994C198.703 631.842 196.965 633.316 194.677 634.416C192.389 635.472 189.727 636 186.691 636H168.343L168.343 590.13H185.833C188.957 590.13 191.641 590.658 193.885 591.714C196.129 592.77 197.823 594.2 198.967 596.004C200.111 597.764 200.683 599.744 200.683 601.944C200.683 604.584 199.979 606.784 198.571 608.544C197.163 610.304 195.271 611.602 192.895 612.438ZM175.867 609.402H185.173C187.637 609.402 189.551 608.852 190.915 607.752C192.323 606.608 193.027 604.98 193.027 602.868C193.027 600.8 192.323 599.194 190.915 598.05C189.551 596.862 187.637 596.268 185.173 596.268H175.867L175.867 609.402ZM186.031 629.862C188.583 629.862 190.585 629.246 192.037 628.014C193.489 626.782 194.215 625.066 194.215 622.866C194.215 620.622 193.445 618.84 191.905 617.52C190.365 616.2 188.319 615.54 185.767 615.54H175.867L175.867 629.862H186.031ZM243.245 616.926C243.245 618.29 243.157 619.522 242.981 620.622H215.195C215.415 623.526 216.493 625.858 218.429 627.618C220.365 629.378 222.741 630.258 225.557 630.258C229.605 630.258 232.465 628.564 234.137 625.176H242.255C241.155 628.52 239.153 631.27 236.249 633.426C233.389 635.538 229.825 636.594 225.557 636.594C222.081 636.594 218.957 635.824 216.185 634.284C213.457 632.7 211.301 630.5 209.717 627.684C208.177 624.824 207.407 621.524 207.407 617.784C207.407 614.044 208.155 610.766 209.651 607.95C211.191 605.09 213.325 602.89 216.053 601.35C218.825 599.81 221.993 599.04 225.557 599.04C228.989 599.04 232.047 599.788 234.731 601.284C237.415 602.78 239.505 604.892 241.001 607.62C242.497 610.304 243.245 613.406 243.245 616.926ZM235.391 614.55C235.347 611.778 234.357 609.556 232.421 607.884C230.485 606.212 228.087 605.376 225.227 605.376C222.631 605.376 220.409 606.212 218.561 607.884C216.713 609.512 215.613 611.734 215.261 614.55H235.391ZM258.173 587.16L258.173 636H250.649L250.649 587.16H258.173ZM283.826 636.594C280.394 636.594 277.292 635.824 274.52 634.284C271.748 632.7 269.57 630.5 267.986 627.684C266.402 624.824 265.61 621.524 265.61 617.784C265.61 614.088 266.424 610.81 268.052 607.95C269.68 605.09 271.902 602.89 274.718 601.35C277.534 599.81 280.68 599.04 284.156 599.04C287.632 599.04 290.778 599.81 293.594 601.35C296.41 602.89 298.632 605.09 300.26 607.95C301.888 610.81 302.702 614.088 302.702 617.784C302.702 621.48 301.866 624.758 300.194 627.618C298.522 630.478 296.234 632.7 293.33 634.284C290.47 635.824 287.302 636.594 283.826 636.594ZM283.826 630.06C285.762 630.06 287.566 629.598 289.238 628.674C290.954 627.75 292.34 626.364 293.396 624.516C294.452 622.668 294.98 620.424 294.98 617.784C294.98 615.144 294.474 612.922 293.462 611.118C292.45 609.27 291.108 607.884 289.436 606.96C287.764 606.036 285.96 605.574 284.024 605.574C282.088 605.574 280.284 606.036 278.612 606.96C276.984 607.884 275.686 609.27 274.718 611.118C273.75 612.922 273.266 615.144 273.266 617.784C273.266 621.7 274.256 624.736 276.236 626.892C278.26 629.004 280.79 630.06 283.826 630.06ZM358.979 599.634L347.693 636H339.773L332.447 609.138L325.121 636H317.201L305.849 599.634H313.505L321.095 628.872L328.817 599.634H336.671L344.063 628.74L351.587 599.634H358.979ZM406.629 599.04C406.145 597.016 405.265 595.498 403.989 594.486C402.713 593.474 400.931 592.968 398.643 592.968C395.167 592.968 392.571 594.31 390.855 596.994C389.139 599.634 388.237 604.034 388.149 610.194C389.293 608.258 390.965 606.762 393.165 605.706C395.365 604.65 397.741 604.122 400.293 604.122C403.197 604.122 405.749 604.76 407.949 606.036C410.193 607.268 411.931 609.072 413.163 611.448C414.439 613.824 415.077 616.662 415.077 619.962C415.077 623.042 414.461 625.792 413.229 628.212C412.041 630.632 410.259 632.546 407.883 633.954C405.507 635.318 402.647 636 399.303 636C394.771 636 391.207 635.01 388.611 633.03C386.059 631.006 384.255 628.168 383.199 624.516C382.187 620.864 381.681 616.31 381.681 610.854C381.681 594.75 387.357 586.698 398.709 586.698C403.109 586.698 406.563 587.886 409.071 590.262C411.623 592.638 413.119 595.564 413.559 599.04H406.629ZM398.643 610.458C395.959 610.458 393.671 611.272 391.779 612.9C389.931 614.484 389.007 616.794 389.007 619.83C389.007 622.866 389.865 625.286 391.581 627.09C393.341 628.85 395.783 629.73 398.907 629.73C401.679 629.73 403.857 628.872 405.441 627.156C407.069 625.44 407.883 623.152 407.883 620.292C407.883 617.3 407.091 614.924 405.507 613.164C403.967 611.36 401.679 610.458 398.643 610.458ZM423.103 611.316C423.103 603.704 424.379 597.764 426.931 593.496C429.527 589.184 433.971 587.028 440.263 587.028C446.555 587.028 450.977 589.184 453.529 593.496C456.125 597.764 457.423 603.704 457.423 611.316C457.423 619.016 456.125 625.044 453.529 629.4C450.977 633.712 446.555 635.868 440.263 635.868C433.971 635.868 429.527 633.712 426.931 629.4C424.379 625.044 423.103 619.016 423.103 611.316ZM450.031 611.316C450.031 607.752 449.789 604.738 449.305 602.274C448.865 599.81 447.941 597.808 446.533 596.268C445.125 594.684 443.035 593.892 440.263 593.892C437.491 593.892 435.401 594.684 433.993 596.268C432.585 597.808 431.639 599.81 431.155 602.274C430.715 604.738 430.495 607.752 430.495 611.316C430.495 615.012 430.715 618.114 431.155 620.622C431.595 623.13 432.519 625.154 433.927 626.694C435.379 628.234 437.491 629.004 440.263 629.004C443.035 629.004 445.125 628.234 446.533 626.694C447.985 625.154 448.931 623.13 449.371 620.622C449.811 618.114 450.031 615.012 450.031 611.316ZM491.042 605.046C492.318 603.286 494.056 601.856 496.256 600.756C498.5 599.612 500.986 599.04 503.714 599.04C506.926 599.04 509.83 599.81 512.426 601.35C515.022 602.89 517.068 605.09 518.564 607.95C520.06 610.766 520.808 614 520.808 617.652C520.808 621.304 520.06 624.582 518.564 627.486C517.068 630.346 515 632.59 512.36 634.218C509.764 635.802 506.882 636.594 503.714 636.594C500.898 636.594 498.39 636.044 496.19 634.944C494.034 633.844 492.318 632.436 491.042 630.72L491.042 636H483.518L483.518 587.16H491.042L491.042 605.046ZM513.152 617.652C513.152 615.144 512.624 612.988 511.568 611.184C510.556 609.336 509.192 607.95 507.476 607.026C505.804 606.058 504 605.574 502.064 605.574C500.172 605.574 498.368 606.058 496.652 607.026C494.98 607.994 493.616 609.402 492.56 611.25C491.548 613.098 491.042 615.276 491.042 617.784C491.042 620.292 491.548 622.492 492.56 624.384C493.616 626.232 494.98 627.64 496.652 628.608C498.368 629.576 500.172 630.06 502.064 630.06C504 630.06 505.804 629.576 507.476 628.608C509.192 627.596 510.556 626.144 511.568 624.252C512.624 622.36 513.152 620.16 513.152 617.652ZM535.773 604.98C537.049 603.308 538.787 601.9 540.987 600.756C543.187 599.612 545.673 599.04 548.445 599.04C551.613 599.04 554.495 599.832 557.091 601.416C559.731 602.956 561.799 605.134 563.295 607.95C564.791 610.766 565.539 614 565.539 617.652C565.539 621.304 564.791 624.582 563.295 627.486C561.799 630.346 559.731 632.59 557.091 634.218C554.495 635.802 551.613 636.594 548.445 636.594C545.673 636.594 543.209 636.044 541.053 634.944C538.897 633.8 537.137 632.392 535.773 630.72L535.773 653.292H528.249L528.249 599.634H535.773L535.773 604.98ZM557.883 617.652C557.883 615.144 557.355 612.988 556.299 611.184C555.287 609.336 553.923 607.95 552.207 607.026C550.535 606.058 548.731 605.574 546.795 605.574C544.903 605.574 543.099 606.058 541.383 607.026C539.711 607.994 538.347 609.402 537.291 611.25C536.279 613.098 535.773 615.276 535.773 617.784C535.773 620.292 536.279 622.492 537.291 624.384C538.347 626.232 539.711 627.64 541.383 628.608C543.099 629.576 544.903 630.06 546.795 630.06C548.731 630.06 550.535 629.576 552.207 628.608C553.923 627.596 555.287 626.144 556.299 624.252C557.355 622.36 557.883 620.16 557.883 617.652ZM617.001 599.04C619.861 599.04 622.413 599.634 624.657 600.822C626.945 602.01 628.727 603.77 630.003 606.102C631.323 608.434 631.983 611.25 631.983 614.55L631.983 636H624.525L624.525 615.672C624.525 612.416 623.711 609.93 622.083 608.214C620.455 606.454 618.233 605.574 615.417 605.574C612.601 605.574 610.357 606.454 608.685 608.214C607.057 609.93 606.243 612.416 606.243 615.672L606.243 636H598.785L598.785 615.672C598.785 612.416 597.971 609.93 596.343 608.214C594.715 606.454 592.493 605.574 589.677 605.574C586.861 605.574 584.617 606.454 582.945 608.214C581.317 609.93 580.503 612.416 580.503 615.672L580.503 636H572.979L572.979 599.634H580.503L580.503 603.792C581.735 602.296 583.297 601.13 585.189 600.294C587.081 599.458 589.105 599.04 591.261 599.04C594.165 599.04 596.761 599.656 599.049 600.888C601.337 602.12 603.097 603.902 604.329 606.234C605.429 604.034 607.145 602.296 609.477 601.02C611.809 599.7 614.317 599.04 617.001 599.04Z" fill="white"/>
<path d="M176 671.5L171.873 673.874L160.627 680.376L156.5 682.75V705.25L160.627 707.624L171.976 714.126L176.103 716.5L180.23 714.126L191.373 707.624L195.5 705.25V682.75L191.373 680.376L180.127 673.874L176 671.5ZM164.754 700.502V687.498L176 680.995L187.246 687.498V700.502L176 707.005L164.754 700.502Z" fill="white"/>
<path d="M239.777 682.088L239.777 707H236.501L236.501 688.424L228.221 707H225.917L217.601 688.388L217.601 707H214.325L214.325 682.088H217.853L227.069 702.68L236.285 682.088H239.777ZM263.333 696.38C263.333 697.004 263.297 697.664 263.225 698.36H247.457C247.577 700.304 248.237 701.828 249.437 702.932C250.661 704.012 252.137 704.552 253.865 704.552C255.281 704.552 256.457 704.228 257.393 703.58C258.353 702.908 259.025 702.02 259.409 700.916H262.937C262.409 702.812 261.353 704.36 259.769 705.56C258.185 706.736 256.217 707.324 253.865 707.324C251.993 707.324 250.313 706.904 248.825 706.064C247.361 705.224 246.209 704.036 245.369 702.5C244.529 700.94 244.109 699.14 244.109 697.1C244.109 695.06 244.517 693.272 245.333 691.736C246.149 690.2 247.289 689.024 248.753 688.208C250.241 687.368 251.945 686.948 253.865 686.948C255.737 686.948 257.393 687.356 258.833 688.172C260.273 688.988 261.377 690.116 262.145 691.556C262.937 692.972 263.333 694.58 263.333 696.38ZM259.949 695.696C259.949 694.448 259.673 693.38 259.121 692.492C258.569 691.58 257.813 690.896 256.853 690.44C255.917 689.96 254.873 689.72 253.721 689.72C252.065 689.72 250.649 690.248 249.473 691.304C248.321 692.36 247.661 693.824 247.493 695.696H259.949ZM266.433 697.064C266.433 695.048 266.841 693.284 267.657 691.772C268.473 690.236 269.589 689.048 271.005 688.208C272.445 687.368 274.053 686.948 275.829 686.948C277.365 686.948 278.793 687.308 280.113 688.028C281.433 688.724 282.441 689.648 283.137 690.8L283.137 680.36H286.449L286.449 707H283.137L283.137 703.292C282.489 704.468 281.529 705.44 280.257 706.208C278.985 706.952 277.497 707.324 275.793 707.324C274.041 707.324 272.445 706.892 271.005 706.028C269.589 705.164 268.473 703.952 267.657 702.392C266.841 700.832 266.433 699.056 266.433 697.064ZM283.137 697.1C283.137 695.612 282.837 694.316 282.237 693.212C281.637 692.108 280.821 691.268 279.789 690.692C278.781 690.092 277.665 689.792 276.441 689.792C275.217 689.792 274.101 690.08 273.093 690.656C272.085 691.232 271.281 692.072 270.681 693.176C270.081 694.28 269.781 695.576 269.781 697.064C269.781 698.576 270.081 699.896 270.681 701.024C271.281 702.128 272.085 702.98 273.093 703.58C274.101 704.156 275.217 704.444 276.441 704.444C277.665 704.444 278.781 704.156 279.789 703.58C280.821 702.98 281.637 702.128 282.237 701.024C282.837 699.896 283.137 698.588 283.137 697.1ZM293.677 684.068C293.053 684.068 292.525 683.852 292.093 683.42C291.661 682.988 291.445 682.46 291.445 681.836C291.445 681.212 291.661 680.684 292.093 680.252C292.525 679.82 293.053 679.604 293.677 679.604C294.277 679.604 294.781 679.82 295.189 680.252C295.621 680.684 295.837 681.212 295.837 681.836C295.837 682.46 295.621 682.988 295.189 683.42C294.781 683.852 294.277 684.068 293.677 684.068ZM295.261 687.272L295.261 707H291.985L291.985 687.272H295.261ZM299.62 697.1C299.62 695.06 300.028 693.284 300.844 691.772C301.66 690.236 302.788 689.048 304.228 688.208C305.692 687.368 307.36 686.948 309.232 686.948C311.656 686.948 313.648 687.536 315.208 688.712C316.792 689.888 317.836 691.52 318.34 693.608H314.812C314.476 692.408 313.816 691.46 312.832 690.764C311.872 690.068 310.672 689.72 309.232 689.72C307.36 689.72 305.848 690.368 304.696 691.664C303.544 692.936 302.968 694.748 302.968 697.1C302.968 699.476 303.544 701.312 304.696 702.608C305.848 703.904 307.36 704.552 309.232 704.552C310.672 704.552 311.872 704.216 312.832 703.544C313.792 702.872 314.452 701.912 314.812 700.664H318.34C317.812 702.68 316.756 704.3 315.172 705.524C313.588 706.724 311.608 707.324 309.232 707.324C307.36 707.324 305.692 706.904 304.228 706.064C302.788 705.224 301.66 704.036 300.844 702.5C300.028 700.964 299.62 699.164 299.62 697.1ZM321.487 697.064C321.487 695.048 321.895 693.284 322.711 691.772C323.527 690.236 324.643 689.048 326.059 688.208C327.499 687.368 329.095 686.948 330.847 686.948C332.575 686.948 334.075 687.32 335.347 688.064C336.619 688.808 337.567 689.744 338.191 690.872L338.191 687.272H341.503L341.503 707H338.191L338.191 703.328C337.543 704.48 336.571 705.44 335.275 706.208C334.003 706.952 332.515 707.324 330.811 707.324C329.059 707.324 327.475 706.892 326.059 706.028C324.643 705.164 323.527 703.952 322.711 702.392C321.895 700.832 321.487 699.056 321.487 697.064ZM338.191 697.1C338.191 695.612 337.891 694.316 337.291 693.212C336.691 692.108 335.875 691.268 334.843 690.692C333.835 690.092 332.719 689.792 331.495 689.792C330.271 689.792 329.155 690.08 328.147 690.656C327.139 691.232 326.335 692.072 325.735 693.176C325.135 694.28 324.835 695.576 324.835 697.064C324.835 698.576 325.135 699.896 325.735 701.024C326.335 702.128 327.139 702.98 328.147 703.58C329.155 704.156 330.271 704.444 331.495 704.444C332.719 704.444 333.835 704.156 334.843 703.58C335.875 702.98 336.691 702.128 337.291 701.024C337.891 699.896 338.191 698.588 338.191 697.1ZM350.316 680.36L350.316 707H347.04L347.04 680.36H350.316ZM364.273 697.064C364.273 695.048 364.681 693.284 365.497 691.772C366.313 690.236 367.429 689.048 368.845 688.208C370.285 687.368 371.893 686.948 373.669 686.948C375.205 686.948 376.633 687.308 377.953 688.028C379.273 688.724 380.281 689.648 380.977 690.8L380.977 680.36H384.289L384.289 707H380.977L380.977 703.292C380.329 704.468 379.369 705.44 378.097 706.208C376.825 706.952 375.337 707.324 373.633 707.324C371.881 707.324 370.285 706.892 368.845 706.028C367.429 705.164 366.313 703.952 365.497 702.392C364.681 700.832 364.273 699.056 364.273 697.064ZM380.977 697.1C380.977 695.612 380.677 694.316 380.077 693.212C379.477 692.108 378.661 691.268 377.629 690.692C376.621 690.092 375.505 689.792 374.281 689.792C373.057 689.792 371.941 690.08 370.933 690.656C369.925 691.232 369.121 692.072 368.521 693.176C367.921 694.28 367.621 695.576 367.621 697.064C367.621 698.576 367.921 699.896 368.521 701.024C369.121 702.128 369.925 702.98 370.933 703.58C371.941 704.156 373.057 704.444 374.281 704.444C375.505 704.444 376.621 704.156 377.629 703.58C378.661 702.98 379.477 702.128 380.077 701.024C380.677 699.896 380.977 698.588 380.977 697.1ZM388.601 697.064C388.601 695.048 389.009 693.284 389.825 691.772C390.641 690.236 391.757 689.048 393.173 688.208C394.613 687.368 396.209 686.948 397.961 686.948C399.689 686.948 401.189 687.32 402.461 688.064C403.733 688.808 404.681 689.744 405.305 690.872L405.305 687.272H408.617L408.617 707H405.305L405.305 703.328C404.657 704.48 403.685 705.44 402.389 706.208C401.117 706.952 399.629 707.324 397.925 707.324C396.173 707.324 394.589 706.892 393.173 706.028C391.757 705.164 390.641 703.952 389.825 702.392C389.009 700.832 388.601 699.056 388.601 697.064ZM405.305 697.1C405.305 695.612 405.005 694.316 404.405 693.212C403.805 692.108 402.989 691.268 401.957 690.692C400.949 690.092 399.833 689.792 398.609 689.792C397.385 689.792 396.269 690.08 395.261 690.656C394.253 691.232 393.449 692.072 392.849 693.176C392.249 694.28 391.949 695.576 391.949 697.064C391.949 698.576 392.249 699.896 392.849 701.024C393.449 702.128 394.253 702.98 395.261 703.58C396.269 704.156 397.385 704.444 398.609 704.444C399.833 704.444 400.949 704.156 401.957 703.58C402.989 702.98 403.805 702.128 404.405 701.024C405.005 699.896 405.305 698.588 405.305 697.1ZM418.149 689.972L418.149 701.6C418.149 702.56 418.353 703.244 418.761 703.652C419.169 704.036 419.877 704.228 420.885 704.228H423.297L423.297 707H420.345C418.521 707 417.153 706.58 416.241 705.74C415.329 704.9 414.873 703.52 414.873 701.6L414.873 689.972H412.317L412.317 687.272H414.873L414.873 682.304H418.149L418.149 687.272H423.297L423.297 689.972H418.149ZM426.042 697.064C426.042 695.048 426.45 693.284 427.266 691.772C428.082 690.236 429.198 689.048 430.614 688.208C432.054 687.368 433.65 686.948 435.402 686.948C437.13 686.948 438.63 687.32 439.902 688.064C441.174 688.808 442.122 689.744 442.746 690.872L442.746 687.272H446.058L446.058 707H442.746L442.746 703.328C442.098 704.48 441.126 705.44 439.83 706.208C438.558 706.952 437.07 707.324 435.366 707.324C433.614 707.324 432.03 706.892 430.614 706.028C429.198 705.164 428.082 703.952 427.266 702.392C426.45 700.832 426.042 699.056 426.042 697.064ZM442.746 697.1C442.746 695.612 442.446 694.316 441.846 693.212C441.246 692.108 440.43 691.268 439.398 690.692C438.39 690.092 437.274 689.792 436.05 689.792C434.826 689.792 433.71 690.08 432.702 690.656C431.694 691.232 430.89 692.072 430.29 693.176C429.69 694.28 429.39 695.576 429.39 697.064C429.39 698.576 429.69 699.896 430.29 701.024C430.89 702.128 431.694 702.98 432.702 703.58C433.71 704.156 434.826 704.444 436.05 704.444C437.274 704.444 438.39 704.156 439.398 703.58C440.43 702.98 441.246 702.128 441.846 701.024C442.446 699.896 442.746 698.588 442.746 697.1ZM479.192 696.38C479.192 697.004 479.156 697.664 479.084 698.36H463.316C463.436 700.304 464.096 701.828 465.296 702.932C466.52 704.012 467.996 704.552 469.724 704.552C471.14 704.552 472.316 704.228 473.252 703.58C474.212 702.908 474.884 702.02 475.268 700.916H478.796C478.268 702.812 477.212 704.36 475.628 705.56C474.044 706.736 472.076 707.324 469.724 707.324C467.852 707.324 466.172 706.904 464.684 706.064C463.22 705.224 462.068 704.036 461.228 702.5C460.388 700.94 459.968 699.14 459.968 697.1C459.968 695.06 460.376 693.272 461.192 691.736C462.008 690.2 463.148 689.024 464.612 688.208C466.1 687.368 467.804 686.948 469.724 686.948C471.596 686.948 473.252 687.356 474.692 688.172C476.132 688.988 477.236 690.116 478.004 691.556C478.796 692.972 479.192 694.58 479.192 696.38ZM475.808 695.696C475.808 694.448 475.532 693.38 474.98 692.492C474.428 691.58 473.672 690.896 472.712 690.44C471.776 689.96 470.732 689.72 469.58 689.72C467.924 689.72 466.508 690.248 465.332 691.304C464.18 692.36 463.52 693.824 463.352 695.696H475.808ZM493.128 686.912C495.528 686.912 497.472 687.644 498.96 689.108C500.448 690.548 501.192 692.636 501.192 695.372L501.192 707H497.952L497.952 695.84C497.952 693.872 497.46 692.372 496.476 691.34C495.492 690.284 494.148 689.756 492.444 689.756C490.716 689.756 489.336 690.296 488.304 691.376C487.296 692.456 486.792 694.028 486.792 696.092L486.792 707H483.516L483.516 687.272H486.792L486.792 690.08C487.44 689.072 488.316 688.292 489.42 687.74C490.548 687.188 491.784 686.912 493.128 686.912ZM505.319 697.1C505.319 695.06 505.727 693.284 506.543 691.772C507.359 690.236 508.487 689.048 509.927 688.208C511.391 687.368 513.059 686.948 514.931 686.948C517.355 686.948 519.347 687.536 520.907 688.712C522.491 689.888 523.535 691.52 524.039 693.608H520.511C520.175 692.408 519.515 691.46 518.531 690.764C517.571 690.068 516.371 689.72 514.931 689.72C513.059 689.72 511.547 690.368 510.395 691.664C509.243 692.936 508.667 694.748 508.667 697.1C508.667 699.476 509.243 701.312 510.395 702.608C511.547 703.904 513.059 704.552 514.931 704.552C516.371 704.552 517.571 704.216 518.531 703.544C519.491 702.872 520.151 701.912 520.511 700.664H524.039C523.511 702.68 522.455 704.3 520.871 705.524C519.287 706.724 517.307 707.324 514.931 707.324C513.059 707.324 511.391 706.904 509.927 706.064C508.487 705.224 507.359 704.036 506.543 702.5C505.727 700.964 505.319 699.164 505.319 697.1ZM531.687 690.476C532.263 689.348 533.079 688.472 534.135 687.848C535.215 687.224 536.523 686.912 538.059 686.912L538.059 690.296H537.195C533.523 690.296 531.687 692.288 531.687 696.272L531.687 707H528.411L528.411 687.272H531.687L531.687 690.476ZM558.832 687.272L546.952 716.288H543.568L547.456 706.784L539.5 687.272H543.136L549.328 703.256L555.448 687.272H558.832ZM565.402 690.908C566.05 689.78 567.01 688.844 568.282 688.1C569.578 687.332 571.078 686.948 572.782 686.948C574.534 686.948 576.118 687.368 577.534 688.208C578.974 689.048 580.102 690.236 580.918 691.772C581.734 693.284 582.142 695.048 582.142 697.064C582.142 699.056 581.734 700.832 580.918 702.392C580.102 703.952 578.974 705.164 577.534 706.028C576.118 706.892 574.534 707.324 572.782 707.324C571.102 707.324 569.614 706.952 568.318 706.208C567.046 705.44 566.074 704.492 565.402 703.364L565.402 716.36H562.126L562.126 687.272H565.402L565.402 690.908ZM578.794 697.064C578.794 695.576 578.494 694.28 577.894 693.176C577.294 692.072 576.478 691.232 575.446 690.656C574.438 690.08 573.322 689.792 572.098 689.792C570.898 689.792 569.782 690.092 568.75 690.692C567.742 691.268 566.926 692.12 566.302 693.248C565.702 694.352 565.402 695.636 565.402 697.1C565.402 698.588 565.702 699.896 566.302 701.024C566.926 702.128 567.742 702.98 568.75 703.58C569.782 704.156 570.898 704.444 572.098 704.444C573.322 704.444 574.438 704.156 575.446 703.58C576.478 702.98 577.294 702.128 577.894 701.024C578.494 699.896 578.794 698.576 578.794 697.064ZM590.45 689.972L590.45 701.6C590.45 702.56 590.654 703.244 591.062 703.652C591.47 704.036 592.178 704.228 593.186 704.228H595.598L595.598 707H592.646C590.822 707 589.454 706.58 588.542 705.74C587.63 704.9 587.174 703.52 587.174 701.6L587.174 689.972H584.618L584.618 687.272H587.174L587.174 682.304H590.45L590.45 687.272H595.598L595.598 689.972H590.45ZM617.567 696.38C617.567 697.004 617.531 697.664 617.459 698.36H601.691C601.811 700.304 602.471 701.828 603.671 702.932C604.895 704.012 606.371 704.552 608.099 704.552C609.515 704.552 610.691 704.228 611.627 703.58C612.587 702.908 613.259 702.02 613.643 700.916H617.171C616.643 702.812 615.587 704.36 614.003 705.56C612.419 706.736 610.451 707.324 608.099 707.324C606.227 707.324 604.547 706.904 603.059 706.064C601.595 705.224 600.443 704.036 599.603 702.5C598.763 700.94 598.343 699.14 598.343 697.1C598.343 695.06 598.751 693.272 599.567 691.736C600.383 690.2 601.523 689.024 602.987 688.208C604.475 687.368 606.179 686.948 608.099 686.948C609.971 686.948 611.627 687.356 613.067 688.172C614.507 688.988 615.611 690.116 616.379 691.556C617.171 692.972 617.567 694.58 617.567 696.38ZM614.183 695.696C614.183 694.448 613.907 693.38 613.355 692.492C612.803 691.58 612.047 690.896 611.087 690.44C610.151 689.96 609.107 689.72 607.955 689.72C606.299 689.72 604.883 690.248 603.707 691.304C602.555 692.36 601.895 693.824 601.727 695.696H614.183ZM620.667 697.064C620.667 695.048 621.075 693.284 621.891 691.772C622.707 690.236 623.823 689.048 625.239 688.208C626.679 687.368 628.287 686.948 630.063 686.948C631.599 686.948 633.027 687.308 634.347 688.028C635.667 688.724 636.675 689.648 637.371 690.8L637.371 680.36H640.683L640.683 707H637.371L637.371 703.292C636.723 704.468 635.763 705.44 634.491 706.208C633.219 706.952 631.731 707.324 630.027 707.324C628.275 707.324 626.679 706.892 625.239 706.028C623.823 705.164 622.707 703.952 621.891 702.392C621.075 700.832 620.667 699.056 620.667 697.064ZM637.371 697.1C637.371 695.612 637.071 694.316 636.471 693.212C635.871 692.108 635.055 691.268 634.023 690.692C633.015 690.092 631.899 689.792 630.675 689.792C629.451 689.792 628.335 690.08 627.327 690.656C626.319 691.232 625.515 692.072 624.915 693.176C624.315 694.28 624.015 695.576 624.015 697.064C624.015 698.576 624.315 699.896 624.915 701.024C625.515 702.128 626.319 702.98 627.327 703.58C628.335 704.156 629.451 704.444 630.675 704.444C631.899 704.444 633.015 704.156 634.023 703.58C635.055 702.98 635.871 702.128 636.471 701.024C637.071 699.896 637.371 698.588 637.371 697.1Z" fill="white"/>
<path d="M254.251 113.628L254.251 174H239.545L239.545 137.794L226.043 174H214.175L200.587 137.708L200.587 174H185.881L185.881 113.628H203.253L220.195 155.424L236.965 113.628H254.251ZM310.062 149.232C310.062 150.608 309.976 152.041 309.804 153.532H276.522C276.751 156.513 277.697 158.807 279.36 160.412C281.08 161.96 283.173 162.734 285.638 162.734C289.307 162.734 291.859 161.186 293.292 158.09H308.944C308.141 161.243 306.679 164.081 304.558 166.604C302.494 169.127 299.885 171.105 296.732 172.538C293.579 173.971 290.053 174.688 286.154 174.688C281.453 174.688 277.267 173.685 273.598 171.678C269.929 169.671 267.062 166.805 264.998 163.078C262.934 159.351 261.902 154.994 261.902 150.006C261.902 145.018 262.905 140.661 264.912 136.934C266.976 133.207 269.843 130.341 273.512 128.334C277.181 126.327 281.395 125.324 286.154 125.324C290.798 125.324 294.926 126.299 298.538 128.248C302.15 130.197 304.959 132.978 306.966 136.59C309.03 140.202 310.062 144.416 310.062 149.232ZM295.012 145.362C295.012 142.839 294.152 140.833 292.432 139.342C290.712 137.851 288.562 137.106 285.982 137.106C283.517 137.106 281.424 137.823 279.704 139.256C278.041 140.689 277.009 142.725 276.608 145.362H295.012ZM344.566 161.53L344.566 174H337.084C331.752 174 327.596 172.71 324.614 170.13C321.633 167.493 320.142 163.221 320.142 157.316L320.142 138.224H314.294L314.294 126.012H320.142L320.142 114.316H334.848L334.848 126.012H344.48L344.48 138.224H334.848L334.848 157.488C334.848 158.921 335.192 159.953 335.88 160.584C336.568 161.215 337.715 161.53 339.32 161.53H344.566ZM349.834 149.92C349.834 144.989 350.751 140.661 352.586 136.934C354.478 133.207 357.029 130.341 360.24 128.334C363.45 126.327 367.034 125.324 370.99 125.324C374.372 125.324 377.325 126.012 379.848 127.388C382.428 128.764 384.406 130.57 385.782 132.806L385.782 126.012L400.488 126.012L400.488 174H385.782L385.782 167.206C384.348 169.442 382.342 171.248 379.762 172.624C377.239 174 374.286 174.688 370.904 174.688C367.005 174.688 363.45 173.685 360.24 171.678C357.029 169.614 354.478 166.719 352.586 162.992C350.751 159.208 349.834 154.851 349.834 149.92ZM385.782 150.006C385.782 146.337 384.75 143.441 382.686 141.32C380.679 139.199 378.214 138.138 375.29 138.138C372.366 138.138 369.872 139.199 367.808 141.32C365.801 143.384 364.798 146.251 364.798 149.92C364.798 153.589 365.801 156.513 367.808 158.692C369.872 160.813 372.366 161.874 375.29 161.874C378.214 161.874 380.679 160.813 382.686 158.692C384.75 156.571 385.782 153.675 385.782 150.006ZM408.633 143.728C408.633 137.765 409.923 132.462 412.503 127.818C415.083 123.117 418.666 119.476 423.253 116.896C427.897 114.259 433.143 112.94 438.991 112.94C446.158 112.94 452.292 114.832 457.395 118.616C462.498 122.4 465.909 127.56 467.629 134.096H451.461C450.257 131.573 448.537 129.653 446.301 128.334C444.122 127.015 441.628 126.356 438.819 126.356C434.29 126.356 430.62 127.933 427.811 131.086C425.002 134.239 423.597 138.453 423.597 143.728C423.597 149.003 425.002 153.217 427.811 156.37C430.62 159.523 434.29 161.1 438.819 161.1C441.628 161.1 444.122 160.441 446.301 159.122C448.537 157.803 450.257 155.883 451.461 153.36L467.629 153.36C465.909 159.896 462.498 165.056 457.395 168.84C452.292 172.567 446.158 174.43 438.991 174.43C433.143 174.43 427.897 173.14 423.253 170.56C418.666 167.923 415.083 164.282 412.503 159.638C409.923 154.994 408.633 149.691 408.633 143.728ZM473.711 149.92C473.711 144.989 474.628 140.661 476.463 136.934C478.355 133.207 480.906 130.341 484.117 128.334C487.327 126.327 490.911 125.324 494.867 125.324C498.249 125.324 501.202 126.012 503.725 127.388C506.305 128.764 508.283 130.57 509.659 132.806L509.659 126.012H524.365L524.365 174H509.659L509.659 167.206C508.225 169.442 506.219 171.248 503.639 172.624C501.116 174 498.163 174.688 494.781 174.688C490.882 174.688 487.327 173.685 484.117 171.678C480.906 169.614 478.355 166.719 476.463 162.992C474.628 159.208 473.711 154.851 473.711 149.92ZM509.659 150.006C509.659 146.337 508.627 143.441 506.563 141.32C504.556 139.199 502.091 138.138 499.167 138.138C496.243 138.138 493.749 139.199 491.685 141.32C489.678 143.384 488.675 146.251 488.675 149.92C488.675 153.589 489.678 156.513 491.685 158.692C493.749 160.813 496.243 161.874 499.167 161.874C502.091 161.874 504.556 160.813 506.563 158.692C508.627 156.571 509.659 153.675 509.659 150.006ZM549.71 134.01C551.43 131.373 553.58 129.309 556.16 127.818C558.74 126.27 561.607 125.496 564.76 125.496L564.76 141.062H560.718C557.049 141.062 554.297 141.865 552.462 143.47C550.627 145.018 549.71 147.77 549.71 151.726L549.71 174H535.004L535.004 126.012H549.71L549.71 134.01ZM617.025 149.232C617.025 150.608 616.939 152.041 616.767 153.532H583.485C583.714 156.513 584.66 158.807 586.323 160.412C588.043 161.96 590.136 162.734 592.601 162.734C596.27 162.734 598.822 161.186 600.255 158.09H615.907C615.104 161.243 613.642 164.081 611.521 166.604C609.457 169.127 606.848 171.105 603.695 172.538C600.542 173.971 597.016 174.688 593.117 174.688C588.416 174.688 584.23 173.685 580.561 171.678C576.892 169.671 574.025 166.805 571.961 163.078C569.897 159.351 568.865 154.994 568.865 150.006C568.865 145.018 569.868 140.661 571.875 136.934C573.939 133.207 576.806 130.341 580.475 128.334C584.144 126.327 588.358 125.324 593.117 125.324C597.761 125.324 601.889 126.299 605.501 128.248C609.113 130.197 611.922 132.978 613.929 136.59C615.993 140.202 617.025 144.416 617.025 149.232ZM601.975 145.362C601.975 142.839 601.115 140.833 599.395 139.342C597.675 137.851 595.525 137.106 592.945 137.106C590.48 137.106 588.387 137.823 586.667 139.256C585.004 140.689 583.972 142.725 583.571 145.362H601.975Z" fill="white"/>
<path d="M264.86 354.632C261.67 332.307 267.138 309.981 284.911 291.879C301.469 275.135 325.47 262.313 353.876 268.648C376.966 273.777 391.853 289.918 397.929 298.215C399.296 300.025 402.03 300.025 403.397 298.215C409.626 290.069 424.36 273.928 447.45 268.648C475.856 262.313 499.857 275.135 516.415 291.879C561.227 337.134 527.352 408.787 478.287 441.823C458.083 455.4 427.398 476.971 413.119 490.849C409.018 494.771 405.676 498.391 403.245 501.257C401.878 502.766 399.6 502.766 398.233 501.257C395.802 498.391 392.46 494.771 388.359 490.849C374.08 477.122 343.243 455.55 323.191 441.823C306.026 430.208 293.418 418.291 282.633 400.038" stroke="white" stroke-width="10" stroke-miterlimit="10" stroke-linecap="round" stroke-linejoin="round"/>
<path d="M271.236 378.167H311.491L323.491 358.858L339.745 402.454L358.885 305.759L380.912 430.964L408.407 354.333L424.812 402.755L439.395 378.167H476.916" stroke="white" stroke-width="10" stroke-miterlimit="10" stroke-linecap="round" stroke-linejoin="round"/>
<path d="M476.913 390.08C483.539 390.08 488.91 384.745 488.91 378.163C488.91 371.582 483.539 366.246 476.913 366.246C470.287 366.246 464.916 371.582 464.916 378.163C464.916 384.745 470.287 390.08 476.913 390.08Z" fill="white"/>
<defs>
<linearGradient id="paint0_linear_1_43" x1="116" y1="41" x2="452" y2="800" gradientUnits="userSpaceOnUse">
<stop stop-color="#F78517"/>
<stop offset="1" stop-color="#F17F10"/>
</linearGradient>
</defs>
</svg>
