<svg width="800" height="800" xmlns="http://www.w3.org/2000/svg" fill="none">
 <g>
  <title>Layer 1</title>
  <path d="m135.839,636l-7.524,0l-22.638,-34.254l0,34.254l-7.5239,0l0,-45.936l7.5239,0l22.638,34.188l0,-34.188l7.524,0l0,45.936zm25.655,0.594c-3.432,0 -6.534,-0.77 -9.306,-2.31c-2.772,-1.584 -4.95,-3.784 -6.534,-6.6c-1.584,-2.86 -2.376,-6.16 -2.376,-9.9c0,-3.696 0.814,-6.974 2.442,-9.834c1.628,-2.86 3.85,-5.06 6.666,-6.6c2.816,-1.54 5.962,-2.31 9.438,-2.31c3.476,0 6.622,0.77 9.438,2.31c2.816,1.54 5.038,3.74 6.666,6.6c1.628,2.86 2.442,6.138 2.442,9.834c0,3.696 -0.836,6.974 -2.508,9.834c-1.672,2.86 -3.96,5.082 -6.864,6.666c-2.86,1.54 -6.028,2.31 -9.504,2.31zm0,-6.534c1.936,0 3.74,-0.462 5.412,-1.386c1.716,-0.924 3.102,-2.31 4.158,-4.158c1.056,-1.848 1.584,-4.092 1.584,-6.732c0,-2.64 -0.506,-4.862 -1.518,-6.666c-1.012,-1.848 -2.354,-3.234 -4.026,-4.158c-1.672,-0.924 -3.476,-1.386 -5.412,-1.386c-1.936,0 -3.74,0.462 -5.412,1.386c-1.628,0.924 -2.926,2.31 -3.894,4.158c-0.968,1.804 -1.452,4.026 -1.452,6.666c0,3.916 0.99,6.952 2.97,9.108c2.024,2.112 4.554,3.168 7.59,3.168zm33.837,-25.146c1.1,-1.848 2.552,-3.278 4.356,-4.29c1.848,-1.056 4.026,-1.584 6.534,-1.584l0,7.788l-1.914,0c-2.948,0 -5.192,0.748 -6.732,2.244c-1.496,1.496 -2.244,4.092 -2.244,7.788l0,19.14l-7.524,0l0,-36.366l7.524,0l0,5.28zm61.829,-5.874c2.86,0 5.412,0.594 7.656,1.782c2.288,1.188 4.07,2.948 5.346,5.28c1.32,2.332 1.98,5.148 1.98,8.448l0,21.45l-7.458,0l0,-20.328c0,-3.256 -0.814,-5.742 -2.442,-7.458c-1.628,-1.76 -3.85,-2.64 -6.666,-2.64c-2.816,0 -5.06,0.88 -6.732,2.64c-1.628,1.716 -2.442,4.202 -2.442,7.458l0,20.328l-7.458,0l0,-20.328c0,-3.256 -0.814,-5.742 -2.442,-7.458c-1.628,-1.76 -3.85,-2.64 -6.666,-2.64c-2.816,0 -5.06,0.88 -6.732,2.64c-1.628,1.716 -2.442,4.202 -2.442,7.458l0,20.328l-7.524,0l0,-36.366l7.524,0l0,4.158c1.232,-1.496 2.794,-2.662 4.686,-3.498c1.892,-0.836 3.916,-1.254 6.072,-1.254c2.904,0 5.5,0.616 7.788,1.848c2.288,1.232 4.048,3.014 5.28,5.346c1.1,-2.2 2.816,-3.938 5.148,-5.214c2.332,-1.32 4.84,-1.98 7.524,-1.98zm22.048,18.612c0,-3.652 0.748,-6.886 2.244,-9.702c1.54,-2.816 3.608,-4.994 6.204,-6.534c2.64,-1.584 5.544,-2.376 8.712,-2.376c2.86,0 5.346,0.572 7.458,1.716c2.156,1.1 3.872,2.486 5.148,4.158l0,-5.28l7.59,0l0,36.366l-7.59,0l0,-5.412c-1.276,1.716 -3.014,3.146 -5.214,4.29c-2.2,1.144 -4.708,1.716 -7.524,1.716c-3.124,0 -5.984,-0.792 -8.58,-2.376c-2.596,-1.628 -4.664,-3.872 -6.204,-6.732c-1.496,-2.904 -2.244,-6.182 -2.244,-9.834zm29.766,0.132c0,-2.508 -0.528,-4.686 -1.584,-6.534c-1.012,-1.848 -2.354,-3.256 -4.026,-4.224c-1.672,-0.968 -3.476,-1.452 -5.412,-1.452c-1.936,0 -3.74,0.484 -5.412,1.452c-1.672,0.924 -3.036,2.31 -4.092,4.158c-1.012,1.804 -1.518,3.96 -1.518,6.468c0,2.508 0.506,4.708 1.518,6.6c1.056,1.892 2.42,3.344 4.092,4.356c1.716,0.968 3.52,1.452 5.412,1.452c1.936,0 3.74,-0.484 5.412,-1.452c1.672,-0.968 3.014,-2.376 4.026,-4.224c1.056,-1.892 1.584,-4.092 1.584,-6.6zm24.996,-30.624l0,48.84l-7.524,0l0,-48.84l7.524,0zm63.653,2.97l0,45.87l-7.524,0l0,-20.064l-21.582,0l0,20.064l-7.524,0l0,-45.87l7.524,0l0,19.668l21.582,0l0,-19.668l7.524,0zm43.235,26.796c0,1.364 -0.088,2.596 -0.264,3.696l-27.786,0c0.22,2.904 1.298,5.236 3.234,6.996c1.936,1.76 4.312,2.64 7.128,2.64c4.048,0 6.908,-1.694 8.58,-5.082l8.118,0c-1.1,3.344 -3.102,6.094 -6.006,8.25c-2.86,2.112 -6.424,3.168 -10.692,3.168c-3.476,0 -6.6,-0.77 -9.372,-2.31c-2.728,-1.584 -4.884,-3.784 -6.468,-6.6c-1.54,-2.86 -2.31,-6.16 -2.31,-9.9c0,-3.74 0.748,-7.018 2.244,-9.834c1.54,-2.86 3.674,-5.06 6.402,-6.6c2.772,-1.54 5.94,-2.31 9.504,-2.31c3.432,0 6.49,0.748 9.174,2.244c2.684,1.496 4.774,3.608 6.27,6.336c1.496,2.684 2.244,5.786 2.244,9.306zm-7.854,-2.376c-0.044,-2.772 -1.034,-4.994 -2.97,-6.666c-1.936,-1.672 -4.334,-2.508 -7.194,-2.508c-2.596,0 -4.818,0.836 -6.666,2.508c-1.848,1.628 -2.948,3.85 -3.3,6.666l20.13,0zm12.751,3.102c0,-3.652 0.748,-6.886 2.244,-9.702c1.54,-2.816 3.608,-4.994 6.204,-6.534c2.64,-1.584 5.544,-2.376 8.712,-2.376c2.86,0 5.346,0.572 7.458,1.716c2.156,1.1 3.872,2.486 5.148,4.158l0,-5.28l7.59,0l0,36.366l-7.59,0l0,-5.412c-1.276,1.716 -3.014,3.146 -5.214,4.29c-2.2,1.144 -4.708,1.716 -7.524,1.716c-3.124,0 -5.984,-0.792 -8.58,-2.376c-2.596,-1.628 -4.664,-3.872 -6.204,-6.732c-1.496,-2.904 -2.244,-6.182 -2.244,-9.834zm29.766,0.132c0,-2.508 -0.528,-4.686 -1.584,-6.534c-1.012,-1.848 -2.354,-3.256 -4.026,-4.224c-1.672,-0.968 -3.476,-1.452 -5.412,-1.452c-1.936,0 -3.74,0.484 -5.412,1.452c-1.672,0.924 -3.036,2.31 -4.092,4.158c-1.012,1.804 -1.518,3.96 -1.518,6.468c0,2.508 0.506,4.708 1.518,6.6c1.056,1.892 2.42,3.344 4.092,4.356c1.716,0.968 3.52,1.452 5.412,1.452c1.936,0 3.74,-0.484 5.412,-1.452c1.672,-0.968 3.014,-2.376 4.026,-4.224c1.056,-1.892 1.584,-4.092 1.584,-6.6zm24.996,-12.87c1.1,-1.848 2.552,-3.278 4.356,-4.29c1.848,-1.056 4.026,-1.584 6.534,-1.584l0,7.788l-1.914,0c-2.948,0 -5.192,0.748 -6.732,2.244c-1.496,1.496 -2.244,4.092 -2.244,7.788l0,19.14l-7.524,0l0,-36.366l7.524,0l0,5.28zm26.584,0.858l0,20.13c0,1.364 0.308,2.354 0.924,2.97c0.66,0.572 1.76,0.858 3.3,0.858l4.62,0l0,6.27l-5.94,0c-3.388,0 -5.984,-0.792 -7.788,-2.376c-1.804,-1.584 -2.706,-4.158 -2.706,-7.722l0,-20.13l-4.29,0l0,-6.138l4.29,0l0,-9.042l7.59,0l0,9.042l8.844,0l0,6.138l-8.844,0zm56.749,30.228l-10.56,-18.348l-5.742,0l0,18.348l-7.524,0l0,-45.87l15.84,0c3.52,0 6.49,0.616 8.91,1.848c2.464,1.232 4.29,2.882 5.478,4.95c1.232,2.068 1.848,4.378 1.848,6.93c0,2.992 -0.88,5.72 -2.64,8.184c-1.716,2.42 -4.378,4.07 -7.986,4.95l11.352,19.008l-8.976,0zm-16.302,-24.354l8.316,0c2.816,0 4.928,-0.704 6.336,-2.112c1.452,-1.408 2.178,-3.3 2.178,-5.676c0,-2.376 -0.704,-4.224 -2.112,-5.544c-1.408,-1.364 -3.542,-2.046 -6.402,-2.046l-8.316,0l0,15.378zm31.669,6.006c0,-3.652 0.748,-6.886 2.244,-9.702c1.54,-2.816 3.608,-4.994 6.204,-6.534c2.64,-1.584 5.544,-2.376 8.712,-2.376c2.86,0 5.346,0.572 7.458,1.716c2.156,1.1 3.872,2.486 5.148,4.158l0,-5.28l7.59,0l0,36.366l-7.59,0l0,-5.412c-1.276,1.716 -3.014,3.146 -5.214,4.29c-2.2,1.144 -4.708,1.716 -7.524,1.716c-3.124,0 -5.984,-0.792 -8.58,-2.376c-2.596,-1.628 -4.664,-3.872 -6.204,-6.732c-1.496,-2.904 -2.244,-6.182 -2.244,-9.834zm29.766,0.132c0,-2.508 -0.528,-4.686 -1.584,-6.534c-1.012,-1.848 -2.354,-3.256 -4.026,-4.224c-1.672,-0.968 -3.476,-1.452 -5.412,-1.452c-1.936,0 -3.74,0.484 -5.412,1.452c-1.672,0.924 -3.036,2.31 -4.092,4.158c-1.012,1.804 -1.518,3.96 -1.518,6.468c0,2.508 0.506,4.708 1.518,6.6c1.056,1.892 2.42,3.344 4.092,4.356c1.716,0.968 3.52,1.452 5.412,1.452c1.936,0 3.74,-0.484 5.412,-1.452c1.672,-0.968 3.014,-2.376 4.026,-4.224c1.056,-1.892 1.584,-4.092 1.584,-6.6zm26.251,-12.012l0,20.13c0,1.364 0.308,2.354 0.924,2.97c0.66,0.572 1.76,0.858 3.3,0.858l4.62,0l0,6.27l-5.94,0c-3.388,0 -5.984,-0.792 -7.788,-2.376c-1.804,-1.584 -2.706,-4.158 -2.706,-7.722l0,-20.13l-4.29,0l0,-6.138l4.29,0l0,-9.042l7.59,0l0,9.042l8.844,0l0,6.138l-8.844,0zm49.109,11.154c0,1.364 -0.088,2.596 -0.264,3.696l-27.786,0c0.22,2.904 1.298,5.236 3.234,6.996c1.936,1.76 4.312,2.64 7.128,2.64c4.048,0 6.908,-1.694 8.58,-5.082l8.117,0c-1.099,3.344 -3.101,6.094 -6.005,8.25c-2.86,2.112 -6.424,3.168 -10.692,3.168c-3.476,0 -6.6,-0.77 -9.372,-2.31c-2.728,-1.584 -4.884,-3.784 -6.468,-6.6c-1.54,-2.86 -2.31,-6.16 -2.31,-9.9c0,-3.74 0.748,-7.018 2.244,-9.834c1.54,-2.86 3.674,-5.06 6.402,-6.6c2.772,-1.54 5.94,-2.31 9.504,-2.31c3.432,0 6.49,0.748 9.174,2.244c2.684,1.496 4.774,3.608 6.27,6.336c1.496,2.684 2.244,5.786 2.244,9.306zm-7.854,-2.376c-0.044,-2.772 -1.034,-4.994 -2.97,-6.666c-1.936,-1.672 -4.334,-2.508 -7.194,-2.508c-2.596,0 -4.818,0.836 -6.666,2.508c-1.848,1.628 -2.948,3.85 -3.3,6.666l20.13,0z" fill="white" id="svg_2"/>
  <path d="m176,671.5l-4.127,2.374l-11.246,6.502l-4.127,2.374l0,22.5l4.127,2.374l11.349,6.502l4.127,2.374l4.127,-2.374l11.143,-6.502l4.127,-2.374l0,-22.5l-4.127,-2.374l-11.246,-6.502l-4.127,-2.374zm-11.246,29.002l0,-13.004l11.246,-6.503l11.246,6.503l0,13.004l-11.246,6.503l-11.246,-6.503z" fill="white" id="svg_3"/>
  <path d="m239.777,682.088l0,24.912l-3.276,0l0,-18.576l-8.28,18.576l-2.304,0l-8.316,-18.612l0,18.612l-3.276,0l0,-24.912l3.528,0l9.216,20.592l9.216,-20.592l3.492,0zm23.556,14.292c0,0.624 -0.036,1.284 -0.108,1.98l-15.768,0c0.12,1.944 0.78,3.468 1.98,4.572c1.224,1.08 2.7,1.62 4.428,1.62c1.416,0 2.592,-0.324 3.528,-0.972c0.96,-0.672 1.632,-1.56 2.016,-2.664l3.528,0c-0.528,1.896 -1.584,3.444 -3.168,4.644c-1.584,1.176 -3.552,1.764 -5.904,1.764c-1.872,0 -3.552,-0.42 -5.04,-1.26c-1.464,-0.84 -2.616,-2.028 -3.456,-3.564c-0.84,-1.56 -1.26,-3.36 -1.26,-5.4c0,-2.04 0.408,-3.828 1.224,-5.364c0.816,-1.536 1.956,-2.712 3.42,-3.528c1.488,-0.84 3.192,-1.26 5.112,-1.26c1.872,0 3.528,0.408 4.968,1.224c1.44,0.816 2.544,1.944 3.312,3.384c0.792,1.416 1.188,3.024 1.188,4.824zm-3.384,-0.684c0,-1.248 -0.276,-2.316 -0.828,-3.204c-0.552,-0.912 -1.308,-1.596 -2.268,-2.052c-0.936,-0.48 -1.98,-0.72 -3.132,-0.72c-1.656,0 -3.072,0.528 -4.248,1.584c-1.152,1.056 -1.812,2.52 -1.98,4.392l12.456,0zm6.484,1.368c0,-2.016 0.408,-3.78 1.224,-5.292c0.816,-1.536 1.932,-2.724 3.348,-3.564c1.44,-0.84 3.048,-1.26 4.824,-1.26c1.536,0 2.964,0.36 4.284,1.08c1.32,0.696 2.328,1.62 3.024,2.772l0,-10.44l3.312,0l0,26.64l-3.312,0l0,-3.708c-0.648,1.176 -1.608,2.148 -2.88,2.916c-1.272,0.744 -2.76,1.116 -4.464,1.116c-1.752,0 -3.348,-0.432 -4.788,-1.296c-1.416,-0.864 -2.532,-2.076 -3.348,-3.636c-0.816,-1.56 -1.224,-3.336 -1.224,-5.328zm16.704,0.036c0,-1.488 -0.3,-2.784 -0.9,-3.888c-0.6,-1.104 -1.416,-1.944 -2.448,-2.52c-1.008,-0.6 -2.124,-0.9 -3.348,-0.9c-1.224,0 -2.34,0.288 -3.348,0.864c-1.008,0.576 -1.812,1.416 -2.412,2.52c-0.6,1.104 -0.9,2.4 -0.9,3.888c0,1.512 0.3,2.832 0.9,3.96c0.6,1.104 1.404,1.956 2.412,2.556c1.008,0.576 2.124,0.864 3.348,0.864c1.224,0 2.34,-0.288 3.348,-0.864c1.032,-0.6 1.848,-1.452 2.448,-2.556c0.6,-1.128 0.9,-2.436 0.9,-3.924zm10.54,-13.032c-0.624,0 -1.152,-0.216 -1.584,-0.648c-0.432,-0.432 -0.648,-0.96 -0.648,-1.584c0,-0.624 0.216,-1.152 0.648,-1.584c0.432,-0.432 0.96,-0.648 1.584,-0.648c0.6,0 1.104,0.216 1.512,0.648c0.432,0.432 0.648,0.96 0.648,1.584c0,0.624 -0.216,1.152 -0.648,1.584c-0.408,0.432 -0.912,0.648 -1.512,0.648zm1.584,3.204l0,19.728l-3.276,0l0,-19.728l3.276,0zm4.359,9.828c0,-2.04 0.408,-3.816 1.224,-5.328c0.816,-1.536 1.944,-2.724 3.384,-3.564c1.464,-0.84 3.132,-1.26 5.004,-1.26c2.424,0 4.416,0.588 5.976,1.764c1.584,1.176 2.628,2.808 3.132,4.896l-3.528,0c-0.336,-1.2 -0.996,-2.148 -1.98,-2.844c-0.96,-0.696 -2.16,-1.044 -3.6,-1.044c-1.872,0 -3.384,0.648 -4.536,1.944c-1.152,1.272 -1.728,3.084 -1.728,5.436c0,2.376 0.576,4.212 1.728,5.508c1.152,1.296 2.664,1.944 4.536,1.944c1.44,0 2.64,-0.336 3.6,-1.008c0.96,-0.672 1.62,-1.632 1.98,-2.88l3.528,0c-0.528,2.016 -1.584,3.636 -3.168,4.86c-1.584,1.2 -3.564,1.8 -5.94,1.8c-1.872,0 -3.54,-0.42 -5.004,-1.26c-1.44,-0.84 -2.568,-2.028 -3.384,-3.564c-0.816,-1.536 -1.224,-3.336 -1.224,-5.4zm21.867,-0.036c0,-2.016 0.408,-3.78 1.224,-5.292c0.816,-1.536 1.932,-2.724 3.348,-3.564c1.44,-0.84 3.036,-1.26 4.788,-1.26c1.728,0 3.228,0.372 4.5,1.116c1.272,0.744 2.22,1.68 2.844,2.808l0,-3.6l3.312,0l0,19.728l-3.312,0l0,-3.672c-0.648,1.152 -1.62,2.112 -2.916,2.88c-1.272,0.744 -2.76,1.116 -4.464,1.116c-1.752,0 -3.336,-0.432 -4.752,-1.296c-1.416,-0.864 -2.532,-2.076 -3.348,-3.636c-0.816,-1.56 -1.224,-3.336 -1.224,-5.328zm16.704,0.036c0,-1.488 -0.3,-2.784 -0.9,-3.888c-0.6,-1.104 -1.416,-1.944 -2.448,-2.52c-1.008,-0.6 -2.124,-0.9 -3.348,-0.9c-1.224,0 -2.34,0.288 -3.348,0.864c-1.008,0.576 -1.812,1.416 -2.412,2.52c-0.6,1.104 -0.9,2.4 -0.9,3.888c0,1.512 0.3,2.832 0.9,3.96c0.6,1.104 1.404,1.956 2.412,2.556c1.008,0.576 2.124,0.864 3.348,0.864c1.224,0 2.34,-0.288 3.348,-0.864c1.032,-0.6 1.848,-1.452 2.448,-2.556c0.6,-1.128 0.9,-2.436 0.9,-3.924zm12.125,-16.74l0,26.64l-3.276,0l0,-26.64l3.276,0zm13.957,16.704c0,-2.016 0.408,-3.78 1.224,-5.292c0.816,-1.536 1.932,-2.724 3.348,-3.564c1.44,-0.84 3.048,-1.26 4.824,-1.26c1.536,0 2.964,0.36 4.284,1.08c1.32,0.696 2.328,1.62 3.024,2.772l0,-10.44l3.312,0l0,26.64l-3.312,0l0,-3.708c-0.648,1.176 -1.608,2.148 -2.88,2.916c-1.272,0.744 -2.76,1.116 -4.464,1.116c-1.752,0 -3.348,-0.432 -4.788,-1.296c-1.416,-0.864 -2.532,-2.076 -3.348,-3.636c-0.816,-1.56 -1.224,-3.336 -1.224,-5.328zm16.704,0.036c0,-1.488 -0.3,-2.784 -0.9,-3.888c-0.6,-1.104 -1.416,-1.944 -2.448,-2.52c-1.008,-0.6 -2.124,-0.9 -3.348,-0.9c-1.224,0 -2.34,0.288 -3.348,0.864c-1.008,0.576 -1.812,1.416 -2.412,2.52c-0.6,1.104 -0.9,2.4 -0.9,3.888c0,1.512 0.3,2.832 0.9,3.96c0.6,1.104 1.404,1.956 2.412,2.556c1.008,0.576 2.124,0.864 3.348,0.864c1.224,0 2.34,-0.288 3.348,-0.864c1.032,-0.6 1.848,-1.452 2.448,-2.556c0.6,-1.128 0.9,-2.436 0.9,-3.924zm7.624,-0.036c0,-2.016 0.408,-3.78 1.224,-5.292c0.816,-1.536 1.932,-2.724 3.348,-3.564c1.44,-0.84 3.036,-1.26 4.788,-1.26c1.728,0 3.228,0.372 4.5,1.116c1.272,0.744 2.22,1.68 2.844,2.808l0,-3.6l3.312,0l0,19.728l-3.312,0l0,-3.672c-0.648,1.152 -1.62,2.112 -2.916,2.88c-1.272,0.744 -2.76,1.116 -4.464,1.116c-1.752,0 -3.336,-0.432 -4.752,-1.296c-1.416,-0.864 -2.532,-2.076 -3.348,-3.636c-0.816,-1.56 -1.224,-3.336 -1.224,-5.328zm16.704,0.036c0,-1.488 -0.3,-2.784 -0.9,-3.888c-0.6,-1.104 -1.416,-1.944 -2.448,-2.52c-1.008,-0.6 -2.124,-0.9 -3.348,-0.9c-1.224,0 -2.34,0.288 -3.348,0.864c-1.008,0.576 -1.812,1.416 -2.412,2.52c-0.6,1.104 -0.9,2.4 -0.9,3.888c0,1.512 0.3,2.832 0.9,3.96c0.6,1.104 1.404,1.956 2.412,2.556c1.008,0.576 2.124,0.864 3.348,0.864c1.224,0 2.34,-0.288 3.348,-0.864c1.032,-0.6 1.848,-1.452 2.448,-2.556c0.6,-1.128 0.9,-2.436 0.9,-3.924zm12.844,-7.128l0,11.628c0,0.96 0.204,1.644 0.612,2.052c0.408,0.384 1.116,0.576 2.124,0.576l2.412,0l0,2.772l-2.952,0c-1.824,0 -3.192,-0.42 -4.104,-1.26c-0.912,-0.84 -1.368,-2.22 -1.368,-4.14l0,-11.628l-2.556,0l0,-2.7l2.556,0l0,-4.968l3.276,0l0,4.968l5.148,0l0,2.7l-5.148,0zm7.893,7.092c0,-2.016 0.408,-3.78 1.224,-5.292c0.816,-1.536 1.932,-2.724 3.348,-3.564c1.44,-0.84 3.036,-1.26 4.788,-1.26c1.728,0 3.228,0.372 4.5,1.116c1.272,0.744 2.22,1.68 2.844,2.808l0,-3.6l3.312,0l0,19.728l-3.312,0l0,-3.672c-0.648,1.152 -1.62,2.112 -2.916,2.88c-1.272,0.744 -2.76,1.116 -4.464,1.116c-1.752,0 -3.336,-0.432 -4.752,-1.296c-1.416,-0.864 -2.532,-2.076 -3.348,-3.636c-0.816,-1.56 -1.224,-3.336 -1.224,-5.328zm16.704,0.036c0,-1.488 -0.3,-2.784 -0.9,-3.888c-0.6,-1.104 -1.416,-1.944 -2.448,-2.52c-1.008,-0.6 -2.124,-0.9 -3.348,-0.9c-1.224,0 -2.34,0.288 -3.348,0.864c-1.008,0.576 -1.812,1.416 -2.412,2.52c-0.6,1.104 -0.9,2.4 -0.9,3.888c0,1.512 0.3,2.832 0.9,3.96c0.6,1.104 1.404,1.956 2.412,2.556c1.008,0.576 2.124,0.864 3.348,0.864c1.224,0 2.34,-0.288 3.348,-0.864c1.032,-0.6 1.848,-1.452 2.448,-2.556c0.6,-1.128 0.9,-2.436 0.9,-3.924zm36.446,-0.72c0,0.624 -0.036,1.284 -0.108,1.98l-15.768,0c0.12,1.944 0.78,3.468 1.98,4.572c1.224,1.08 2.7,1.62 4.428,1.62c1.416,0 2.592,-0.324 3.528,-0.972c0.96,-0.672 1.632,-1.56 2.016,-2.664l3.528,0c-0.528,1.896 -1.584,3.444 -3.168,4.644c-1.584,1.176 -3.552,1.764 -5.904,1.764c-1.872,0 -3.552,-0.42 -5.04,-1.26c-1.464,-0.84 -2.616,-2.028 -3.456,-3.564c-0.84,-1.56 -1.26,-3.36 -1.26,-5.4c0,-2.04 0.408,-3.828 1.224,-5.364c0.816,-1.536 1.956,-2.712 3.42,-3.528c1.488,-0.84 3.192,-1.26 5.112,-1.26c1.872,0 3.528,0.408 4.968,1.224c1.44,0.816 2.544,1.944 3.312,3.384c0.792,1.416 1.188,3.024 1.188,4.824zm-3.384,-0.684c0,-1.248 -0.276,-2.316 -0.828,-3.204c-0.552,-0.912 -1.308,-1.596 -2.268,-2.052c-0.936,-0.48 -1.98,-0.72 -3.132,-0.72c-1.656,0 -3.072,0.528 -4.248,1.584c-1.152,1.056 -1.812,2.52 -1.98,4.392l12.456,0zm17.32,-8.784c2.4,0 4.344,0.732 5.832,2.196c1.488,1.44 2.232,3.528 2.232,6.264l0,11.628l-3.24,0l0,-11.16c0,-1.968 -0.492,-3.468 -1.476,-4.5c-0.984,-1.056 -2.328,-1.584 -4.032,-1.584c-1.728,0 -3.108,0.54 -4.14,1.62c-1.008,1.08 -1.512,2.652 -1.512,4.716l0,10.908l-3.276,0l0,-19.728l3.276,0l0,2.808c0.648,-1.008 1.524,-1.788 2.628,-2.34c1.128,-0.552 2.364,-0.828 3.708,-0.828zm12.191,10.188c0,-2.04 0.408,-3.816 1.224,-5.328c0.816,-1.536 1.944,-2.724 3.384,-3.564c1.464,-0.84 3.132,-1.26 5.004,-1.26c2.424,0 4.416,0.588 5.976,1.764c1.584,1.176 2.628,2.808 3.132,4.896l-3.528,0c-0.336,-1.2 -0.996,-2.148 -1.98,-2.844c-0.96,-0.696 -2.16,-1.044 -3.6,-1.044c-1.872,0 -3.384,0.648 -4.536,1.944c-1.152,1.272 -1.728,3.084 -1.728,5.436c0,2.376 0.576,4.212 1.728,5.508c1.152,1.296 2.664,1.944 4.536,1.944c1.44,0 2.64,-0.336 3.6,-1.008c0.96,-0.672 1.62,-1.632 1.98,-2.88l3.528,0c-0.528,2.016 -1.584,3.636 -3.168,4.86c-1.584,1.2 -3.564,1.8 -5.94,1.8c-1.872,0 -3.54,-0.42 -5.004,-1.26c-1.44,-0.84 -2.568,-2.028 -3.384,-3.564c-0.816,-1.536 -1.224,-3.336 -1.224,-5.4zm26.368,-6.624c0.576,-1.128 1.392,-2.004 2.448,-2.628c1.08,-0.624 2.388,-0.936 3.924,-0.936l0,3.384l-0.864,0c-3.672,0 -5.508,1.992 -5.508,5.976l0,10.728l-3.276,0l0,-19.728l3.276,0l0,3.204zm27.145,-3.204l-11.88,29.016l-3.384,0l3.888,-9.504l-7.956,-19.512l3.636,0l6.192,15.984l6.12,-15.984l3.384,0zm6.57,3.636c0.648,-1.128 1.608,-2.064 2.88,-2.808c1.296,-0.768 2.796,-1.152 4.5,-1.152c1.752,0 3.336,0.42 4.752,1.26c1.44,0.84 2.568,2.028 3.384,3.564c0.816,1.512 1.224,3.276 1.224,5.292c0,1.992 -0.408,3.768 -1.224,5.328c-0.816,1.56 -1.944,2.772 -3.384,3.636c-1.416,0.864 -3,1.296 -4.752,1.296c-1.68,0 -3.168,-0.372 -4.464,-1.116c-1.272,-0.768 -2.244,-1.716 -2.916,-2.844l0,12.996l-3.276,0l0,-29.088l3.276,0l0,3.636zm13.392,6.156c0,-1.488 -0.3,-2.784 -0.9,-3.888c-0.6,-1.104 -1.416,-1.944 -2.448,-2.52c-1.008,-0.576 -2.124,-0.864 -3.348,-0.864c-1.2,0 -2.316,0.3 -3.348,0.9c-1.008,0.576 -1.824,1.428 -2.448,2.556c-0.6,1.104 -0.9,2.388 -0.9,3.852c0,1.488 0.3,2.796 0.9,3.924c0.624,1.104 1.44,1.956 2.448,2.556c1.032,0.576 2.148,0.864 3.348,0.864c1.224,0 2.34,-0.288 3.348,-0.864c1.032,-0.6 1.848,-1.452 2.448,-2.556c0.6,-1.128 0.9,-2.448 0.9,-3.96zm11.656,-7.092l0,11.628c0,0.96 0.204,1.644 0.612,2.052c0.408,0.384 1.116,0.576 2.124,0.576l2.412,0l0,2.772l-2.952,0c-1.824,0 -3.192,-0.42 -4.104,-1.26c-0.912,-0.84 -1.368,-2.22 -1.368,-4.14l0,-11.628l-2.556,0l0,-2.7l2.556,0l0,-4.968l3.276,0l0,4.968l5.148,0l0,2.7l-5.148,0zm27.117,6.408c0,0.624 -0.036,1.284 -0.108,1.98l-15.768,0c0.12,1.944 0.78,3.468 1.98,4.572c1.224,1.08 2.7,1.62 4.428,1.62c1.416,0 2.592,-0.324 3.528,-0.972c0.96,-0.672 1.632,-1.56 2.016,-2.664l3.528,0c-0.528,1.896 -1.584,3.444 -3.168,4.644c-1.584,1.176 -3.552,1.764 -5.904,1.764c-1.872,0 -3.552,-0.42 -5.04,-1.26c-1.464,-0.84 -2.616,-2.028 -3.456,-3.564c-0.84,-1.56 -1.26,-3.36 -1.26,-5.4c0,-2.04 0.408,-3.828 1.224,-5.364c0.816,-1.536 1.956,-2.712 3.42,-3.528c1.488,-0.84 3.192,-1.26 5.112,-1.26c1.872,0 3.528,0.408 4.968,1.224c1.44,0.816 2.544,1.944 3.312,3.384c0.792,1.416 1.188,3.024 1.188,4.824zm-3.384,-0.684c0,-1.248 -0.276,-2.316 -0.828,-3.204c-0.552,-0.912 -1.308,-1.596 -2.268,-2.052c-0.936,-0.48 -1.98,-0.72 -3.132,-0.72c-1.656,0 -3.072,0.528 -4.248,1.584c-1.152,1.056 -1.812,2.52 -1.98,4.392l12.456,0zm6.484,1.368c0,-2.016 0.408,-3.78 1.224,-5.292c0.816,-1.536 1.932,-2.724 3.348,-3.564c1.44,-0.84 3.048,-1.26 4.824,-1.26c1.536,0 2.964,0.36 4.284,1.08c1.32,0.696 2.328,1.62 3.024,2.772l0,-10.44l3.312,0l0,26.64l-3.312,0l0,-3.708c-0.648,1.176 -1.608,2.148 -2.88,2.916c-1.272,0.744 -2.76,1.116 -4.464,1.116c-1.752,0 -3.348,-0.432 -4.788,-1.296c-1.416,-0.864 -2.532,-2.076 -3.348,-3.636c-0.816,-1.56 -1.224,-3.336 -1.224,-5.328zm16.704,0.036c0,-1.488 -0.3,-2.784 -0.9,-3.888c-0.6,-1.104 -1.416,-1.944 -2.448,-2.52c-1.008,-0.6 -2.124,-0.9 -3.348,-0.9c-1.224,0 -2.34,0.288 -3.348,0.864c-1.008,0.576 -1.812,1.416 -2.412,2.52c-0.6,1.104 -0.9,2.4 -0.9,3.888c0,1.512 0.3,2.832 0.9,3.96c0.6,1.104 1.404,1.956 2.412,2.556c1.008,0.576 2.124,0.864 3.348,0.864c1.224,0 2.34,-0.288 3.348,-0.864c1.032,-0.6 1.848,-1.452 2.448,-2.556c0.6,-1.128 0.9,-2.436 0.9,-3.924z" fill="white" id="svg_4"/>
  <path d="m254.251,113.628l0,60.372l-14.706,0l0,-36.206l-13.502,36.206l-11.868,0l-13.588,-36.292l0,36.292l-14.706,0l0,-60.372l17.372,0l16.942,41.796l16.77,-41.796l17.286,0zm55.811,35.604c0,1.376 -0.086,2.809 -0.258,4.3l-33.282,0c0.229,2.981 1.175,5.275 2.838,6.88c1.72,1.548 3.813,2.322 6.278,2.322c3.669,0 6.221,-1.548 7.654,-4.644l15.652,0c-0.803,3.153 -2.265,5.991 -4.386,8.514c-2.064,2.523 -4.673,4.501 -7.826,5.934c-3.153,1.433 -6.679,2.15 -10.578,2.15c-4.701,0 -8.887,-1.003 -12.556,-3.01c-3.669,-2.007 -6.536,-4.873 -8.6,-8.6c-2.064,-3.727 -3.096,-8.084 -3.096,-13.072c0,-4.988 1.003,-9.345 3.01,-13.072c2.064,-3.727 4.931,-6.593 8.6,-8.6c3.669,-2.007 7.883,-3.01 12.642,-3.01c4.644,0 8.772,0.975 12.384,2.924c3.612,1.949 6.421,4.73 8.428,8.342c2.064,3.612 3.096,7.826 3.096,12.642zm-15.05,-3.87c0,-2.523 -0.86,-4.529 -2.58,-6.02c-1.72,-1.491 -3.87,-2.236 -6.45,-2.236c-2.465,0 -4.558,0.717 -6.278,2.15c-1.663,1.433 -2.695,3.469 -3.096,6.106l18.404,0zm49.554,16.168l0,12.47l-7.482,0c-5.332,0 -9.488,-1.29 -12.47,-3.87c-2.981,-2.637 -4.472,-6.909 -4.472,-12.814l0,-19.092l-5.848,0l0,-12.212l5.848,0l0,-11.696l14.706,0l0,11.696l9.632,0l0,12.212l-9.632,0l0,19.264c0,1.433 0.344,2.465 1.032,3.096c0.688,0.631 1.835,0.946 3.44,0.946l5.246,0zm5.268,-11.61c0,-4.931 0.917,-9.259 2.752,-12.986c1.892,-3.727 4.443,-6.593 7.654,-8.6c3.21,-2.007 6.794,-3.01 10.75,-3.01c3.382,0 6.335,0.688 8.858,2.064c2.58,1.376 4.558,3.182 5.934,5.418l0,-6.794l14.706,0l0,47.988l-14.706,0l0,-6.794c-1.434,2.236 -3.44,4.042 -6.02,5.418c-2.523,1.376 -5.476,2.064 -8.858,2.064c-3.899,0 -7.454,-1.003 -10.664,-3.01c-3.211,-2.064 -5.762,-4.959 -7.654,-8.686c-1.835,-3.784 -2.752,-8.141 -2.752,-13.072zm35.948,0.086c0,-3.669 -1.032,-6.565 -3.096,-8.686c-2.007,-2.121 -4.472,-3.182 -7.396,-3.182c-2.924,0 -5.418,1.061 -7.482,3.182c-2.007,2.064 -3.01,4.931 -3.01,8.6c0,3.669 1.003,6.593 3.01,8.772c2.064,2.121 4.558,3.182 7.482,3.182c2.924,0 5.389,-1.061 7.396,-3.182c2.064,-2.121 3.096,-5.017 3.096,-8.686zm22.851,-6.278c0,-5.963 1.29,-11.266 3.87,-15.91c2.58,-4.701 6.163,-8.342 10.75,-10.922c4.644,-2.637 9.89,-3.956 15.738,-3.956c7.167,0 13.301,1.892 18.404,5.676c5.103,3.784 8.514,8.944 10.234,15.48l-16.168,0c-1.204,-2.523 -2.924,-4.443 -5.16,-5.762c-2.179,-1.319 -4.673,-1.978 -7.482,-1.978c-4.529,0 -8.199,1.577 -11.008,4.73c-2.809,3.153 -4.214,7.367 -4.214,12.642c0,5.275 1.405,9.489 4.214,12.642c2.809,3.153 6.479,4.73 11.008,4.73c2.809,0 5.303,-0.659 7.482,-1.978c2.236,-1.319 3.956,-3.239 5.16,-5.762l16.168,0c-1.72,6.536 -5.131,11.696 -10.234,15.48c-5.103,3.727 -11.237,5.59 -18.404,5.59c-5.848,0 -11.094,-1.29 -15.738,-3.87c-4.587,-2.637 -8.17,-6.278 -10.75,-10.922c-2.58,-4.644 -3.87,-9.947 -3.87,-15.91zm65.078,6.192c0,-4.931 0.917,-9.259 2.752,-12.986c1.892,-3.727 4.443,-6.593 7.654,-8.6c3.21,-2.007 6.794,-3.01 10.75,-3.01c3.382,0 6.335,0.688 8.858,2.064c2.58,1.376 4.558,3.182 5.934,5.418l0,-6.794l14.706,0l0,47.988l-14.706,0l0,-6.794c-1.434,2.236 -3.44,4.042 -6.02,5.418c-2.523,1.376 -5.476,2.064 -8.858,2.064c-3.899,0 -7.454,-1.003 -10.664,-3.01c-3.211,-2.064 -5.762,-4.959 -7.654,-8.686c-1.835,-3.784 -2.752,-8.141 -2.752,-13.072zm35.948,0.086c0,-3.669 -1.032,-6.565 -3.096,-8.686c-2.007,-2.121 -4.472,-3.182 -7.396,-3.182c-2.924,0 -5.418,1.061 -7.482,3.182c-2.007,2.064 -3.01,4.931 -3.01,8.6c0,3.669 1.003,6.593 3.01,8.772c2.064,2.121 4.558,3.182 7.482,3.182c2.924,0 5.389,-1.061 7.396,-3.182c2.064,-2.121 3.096,-5.017 3.096,-8.686zm40.051,-15.996c1.72,-2.637 3.87,-4.701 6.45,-6.192c2.58,-1.548 5.447,-2.322 8.6,-2.322l0,15.566l-4.042,0c-3.669,0 -6.421,0.803 -8.256,2.408c-1.835,1.548 -2.752,4.3 -2.752,8.256l0,22.274l-14.706,0l0,-47.988l14.706,0l0,7.998zm67.315,15.222c0,1.376 -0.086,2.809 -0.258,4.3l-33.282,0c0.229,2.981 1.175,5.275 2.838,6.88c1.72,1.548 3.813,2.322 6.278,2.322c3.669,0 6.221,-1.548 7.654,-4.644l15.652,0c-0.803,3.153 -2.265,5.991 -4.386,8.514c-2.064,2.523 -4.673,4.501 -7.826,5.934c-3.153,1.433 -6.679,2.15 -10.578,2.15c-4.701,0 -8.887,-1.003 -12.556,-3.01c-3.669,-2.007 -6.536,-4.873 -8.6,-8.6c-2.064,-3.727 -3.096,-8.084 -3.096,-13.072c0,-4.988 1.003,-9.345 3.01,-13.072c2.064,-3.727 4.931,-6.593 8.6,-8.6c3.669,-2.007 7.883,-3.01 12.642,-3.01c4.644,0 8.772,0.975 12.384,2.924c3.612,1.949 6.421,4.73 8.428,8.342c2.064,3.612 3.096,7.826 3.096,12.642zm-15.05,-3.87c0,-2.523 -0.86,-4.529 -2.58,-6.02c-1.72,-1.491 -3.87,-2.236 -6.45,-2.236c-2.465,0 -4.558,0.717 -6.278,2.15c-1.663,1.433 -2.695,3.469 -3.096,6.106l18.404,0z" fill="white" id="svg_5"/>
  <path d="m264.86,354.632c-3.19,-22.325 2.278,-44.651 20.051,-62.753c16.558,-16.744 40.559,-29.566 68.965,-23.231c23.09,5.129 37.977,21.27 44.053,29.567c1.367,1.81 4.101,1.81 5.468,0c6.229,-8.146 20.963,-24.287 44.053,-29.567c28.406,-6.335 52.407,6.487 68.965,23.231c44.812,45.255 10.937,116.908 -38.128,149.944c-20.204,13.577 -50.889,35.148 -65.168,49.026c-4.101,3.922 -7.443,7.542 -9.874,10.408c-1.367,1.509 -3.645,1.509 -5.012,0c-2.431,-2.866 -5.773,-6.486 -9.874,-10.408c-14.279,-13.727 -45.116,-35.299 -65.168,-49.026c-17.165,-11.615 -29.773,-23.532 -40.558,-41.785" stroke="white" stroke-width="10" stroke-miterlimit="10" stroke-linecap="round" stroke-linejoin="round" id="svg_6"/>
  <path d="m271.236,378.167l40.255,0l12,-19.309l16.254,43.596l19.14,-96.695l22.027,125.205l27.495,-76.631l16.405,48.422l14.583,-24.588l37.521,0" stroke="white" stroke-width="10" stroke-miterlimit="10" stroke-linecap="round" stroke-linejoin="round" id="svg_7"/>
  <path d="m476.913,390.08c6.626,0 11.997,-5.335 11.997,-11.917c0,-6.581 -5.371,-11.917 -11.997,-11.917c-6.626,0 -11.997,5.336 -11.997,11.917c0,6.582 5.371,11.917 11.997,11.917z" fill="white" id="svg_8"/>
  <rect id="svg_11" height="2.77778" width="2.77778" y="450.27958" x="-52.77704" fill="white"/>
 </g>

</svg>