<svg width="800" height="800" xmlns="http://www.w3.org/2000/svg">
    <rect height="800" width="800" fill="#2370b9"/> 
<path d="M135.839 636H128.315L105.677 601.746L105.677 636H98.1531L98.1531 590.064H105.677L128.315 624.252L128.315 590.064H135.839L135.839 636ZM161.494 636.594C158.062 636.594 154.96 635.824 152.188 634.284C149.416 632.7 147.238 630.5 145.654 627.684C144.07 624.824 143.278 621.524 143.278 617.784C143.278 614.088 144.092 610.81 145.72 607.95C147.348 605.09 149.57 602.89 152.386 601.35C155.202 599.81 158.348 599.04 161.824 599.04C165.3 599.04 168.446 599.81 171.262 601.35C174.078 602.89 176.3 605.09 177.928 607.95C179.556 610.81 180.37 614.088 180.37 617.784C180.37 621.48 179.534 624.758 177.862 627.618C176.19 630.478 173.902 632.7 170.998 634.284C168.138 635.824 164.97 636.594 161.494 636.594ZM161.494 630.06C163.43 630.06 165.234 629.598 166.906 628.674C168.622 627.75 170.008 626.364 171.064 624.516C172.12 622.668 172.648 620.424 172.648 617.784C172.648 615.144 172.142 612.922 171.13 611.118C170.118 609.27 168.776 607.884 167.104 606.96C165.432 606.036 163.628 605.574 161.692 605.574C159.756 605.574 157.952 606.036 156.28 606.96C154.652 607.884 153.354 609.27 152.386 611.118C151.418 612.922 150.934 615.144 150.934 617.784C150.934 621.7 151.924 624.736 153.904 626.892C155.928 629.004 158.458 630.06 161.494 630.06ZM195.331 604.914C196.431 603.066 197.883 601.636 199.687 600.624C201.535 599.568 203.713 599.04 206.221 599.04L206.221 606.828H204.307C201.359 606.828 199.115 607.576 197.575 609.072C196.079 610.568 195.331 613.164 195.331 616.86L195.331 636H187.807L187.807 599.634H195.331L195.331 604.914ZM257.16 599.04C260.02 599.04 262.572 599.634 264.816 600.822C267.104 602.01 268.886 603.77 270.162 606.102C271.482 608.434 272.142 611.25 272.142 614.55L272.142 636H264.684L264.684 615.672C264.684 612.416 263.87 609.93 262.242 608.214C260.614 606.454 258.392 605.574 255.576 605.574C252.76 605.574 250.516 606.454 248.844 608.214C247.216 609.93 246.402 612.416 246.402 615.672L246.402 636H238.944L238.944 615.672C238.944 612.416 238.13 609.93 236.502 608.214C234.874 606.454 232.652 605.574 229.836 605.574C227.02 605.574 224.776 606.454 223.104 608.214C221.476 609.93 220.662 612.416 220.662 615.672L220.662 636H213.138L213.138 599.634H220.662L220.662 603.792C221.894 602.296 223.456 601.13 225.348 600.294C227.24 599.458 229.264 599.04 231.42 599.04C234.324 599.04 236.92 599.656 239.208 600.888C241.496 602.12 243.256 603.902 244.488 606.234C245.588 604.034 247.304 602.296 249.636 601.02C251.968 599.7 254.476 599.04 257.16 599.04ZM279.208 617.652C279.208 614 279.956 610.766 281.452 607.95C282.992 605.134 285.06 602.956 287.656 601.416C290.296 599.832 293.2 599.04 296.368 599.04C299.228 599.04 301.714 599.612 303.826 600.756C305.982 601.856 307.698 603.242 308.974 604.914L308.974 599.634H316.564L316.564 636H308.974L308.974 630.588C307.698 632.304 305.96 633.734 303.76 634.878C301.56 636.022 299.052 636.594 296.236 636.594C293.112 636.594 290.252 635.802 287.656 634.218C285.06 632.59 282.992 630.346 281.452 627.486C279.956 624.582 279.208 621.304 279.208 617.652ZM308.974 617.784C308.974 615.276 308.446 613.098 307.39 611.25C306.378 609.402 305.036 607.994 303.364 607.026C301.692 606.058 299.888 605.574 297.952 605.574C296.016 605.574 294.212 606.058 292.54 607.026C290.868 607.95 289.504 609.336 288.448 611.184C287.436 612.988 286.93 615.144 286.93 617.652C286.93 620.16 287.436 622.36 288.448 624.252C289.504 626.144 290.868 627.596 292.54 628.608C294.256 629.576 296.06 630.06 297.952 630.06C299.888 630.06 301.692 629.576 303.364 628.608C305.036 627.64 306.378 626.232 307.39 624.384C308.446 622.492 308.974 620.292 308.974 617.784ZM333.97 587.16L333.97 636H326.446L326.446 587.16H333.97ZM397.623 590.13L397.623 636H390.099L390.099 615.936H368.517L368.517 636H360.993L360.993 590.13H368.517L368.517 609.798H390.099L390.099 590.13H397.623ZM440.858 616.926C440.858 618.29 440.77 619.522 440.594 620.622H412.808C413.028 623.526 414.106 625.858 416.042 627.618C417.978 629.378 420.354 630.258 423.17 630.258C427.218 630.258 430.078 628.564 431.75 625.176H439.868C438.768 628.52 436.766 631.27 433.862 633.426C431.002 635.538 427.438 636.594 423.17 636.594C419.694 636.594 416.57 635.824 413.798 634.284C411.07 632.7 408.914 630.5 407.33 627.684C405.79 624.824 405.02 621.524 405.02 617.784C405.02 614.044 405.768 610.766 407.264 607.95C408.804 605.09 410.938 602.89 413.666 601.35C416.438 599.81 419.606 599.04 423.17 599.04C426.602 599.04 429.66 599.788 432.344 601.284C435.028 602.78 437.118 604.892 438.614 607.62C440.11 610.304 440.858 613.406 440.858 616.926ZM433.004 614.55C432.96 611.778 431.97 609.556 430.034 607.884C428.098 606.212 425.7 605.376 422.84 605.376C420.244 605.376 418.022 606.212 416.174 607.884C414.326 609.512 413.226 611.734 412.874 614.55H433.004ZM445.755 617.652C445.755 614 446.503 610.766 447.999 607.95C449.539 605.134 451.607 602.956 454.203 601.416C456.843 599.832 459.747 599.04 462.915 599.04C465.775 599.04 468.261 599.612 470.373 600.756C472.529 601.856 474.245 603.242 475.521 604.914L475.521 599.634H483.111L483.111 636H475.521L475.521 630.588C474.245 632.304 472.507 633.734 470.307 634.878C468.107 636.022 465.599 636.594 462.783 636.594C459.659 636.594 456.799 635.802 454.203 634.218C451.607 632.59 449.539 630.346 447.999 627.486C446.503 624.582 445.755 621.304 445.755 617.652ZM475.521 617.784C475.521 615.276 474.993 613.098 473.937 611.25C472.925 609.402 471.583 607.994 469.911 607.026C468.239 606.058 466.435 605.574 464.499 605.574C462.563 605.574 460.759 606.058 459.087 607.026C457.415 607.95 456.051 609.336 454.995 611.184C453.983 612.988 453.477 615.144 453.477 617.652C453.477 620.16 453.983 622.36 454.995 624.252C456.051 626.144 457.415 627.596 459.087 628.608C460.803 629.576 462.607 630.06 464.499 630.06C466.435 630.06 468.239 629.576 469.911 628.608C471.583 627.64 472.925 626.232 473.937 624.384C474.993 622.492 475.521 620.292 475.521 617.784ZM500.517 604.914C501.617 603.066 503.069 601.636 504.873 600.624C506.721 599.568 508.899 599.04 511.407 599.04L511.407 606.828H509.493C506.545 606.828 504.301 607.576 502.761 609.072C501.265 610.568 500.517 613.164 500.517 616.86L500.517 636H492.993L492.993 599.634H500.517L500.517 604.914ZM527.101 605.772L527.101 625.902C527.101 627.266 527.409 628.256 528.025 628.872C528.685 629.444 529.785 629.73 531.325 629.73H535.945L535.945 636H530.005C526.617 636 524.021 635.208 522.217 633.624C520.413 632.04 519.511 629.466 519.511 625.902L519.511 605.772H515.221L515.221 599.634H519.511L519.511 590.592H527.101L527.101 599.634H535.945L535.945 605.772H527.101ZM583.85 636L573.29 617.652H567.548L567.548 636H560.024L560.024 590.13H575.864C579.384 590.13 582.354 590.746 584.774 591.978C587.238 593.21 589.064 594.86 590.252 596.928C591.484 598.996 592.1 601.306 592.1 603.858C592.1 606.85 591.22 609.578 589.46 612.042C587.744 614.462 585.082 616.112 581.474 616.992L592.826 636H583.85ZM567.548 611.646H575.864C578.68 611.646 580.792 610.942 582.2 609.534C583.652 608.126 584.378 606.234 584.378 603.858C584.378 601.482 583.674 599.634 582.266 598.314C580.858 596.95 578.724 596.268 575.864 596.268H567.548L567.548 611.646ZM599.217 617.652C599.217 614 599.965 610.766 601.461 607.95C603.001 605.134 605.069 602.956 607.665 601.416C610.305 599.832 613.209 599.04 616.377 599.04C619.237 599.04 621.723 599.612 623.835 600.756C625.991 601.856 627.707 603.242 628.983 604.914L628.983 599.634H636.573L636.573 636H628.983L628.983 630.588C627.707 632.304 625.969 633.734 623.769 634.878C621.569 636.022 619.061 636.594 616.245 636.594C613.121 636.594 610.261 635.802 607.665 634.218C605.069 632.59 603.001 630.346 601.461 627.486C599.965 624.582 599.217 621.304 599.217 617.652ZM628.983 617.784C628.983 615.276 628.455 613.098 627.399 611.25C626.387 609.402 625.045 607.994 623.373 607.026C621.701 606.058 619.897 605.574 617.961 605.574C616.025 605.574 614.221 606.058 612.549 607.026C610.877 607.95 609.513 609.336 608.457 611.184C607.445 612.988 606.939 615.144 606.939 617.652C606.939 620.16 607.445 622.36 608.457 624.252C609.513 626.144 610.877 627.596 612.549 628.608C614.265 629.576 616.069 630.06 617.961 630.06C619.897 630.06 621.701 629.576 623.373 628.608C625.045 627.64 626.387 626.232 627.399 624.384C628.455 622.492 628.983 620.292 628.983 617.784ZM655.234 605.772L655.234 625.902C655.234 627.266 655.542 628.256 656.158 628.872C656.818 629.444 657.918 629.73 659.458 629.73H664.078L664.078 636H658.138C654.75 636 652.154 635.208 650.35 633.624C648.546 632.04 647.644 629.466 647.644 625.902L647.644 605.772H643.354L643.354 599.634H647.644L647.644 590.592H655.234L655.234 599.634H664.078L664.078 605.772H655.234ZM704.343 616.926C704.343 618.29 704.255 619.522 704.079 620.622H676.293C676.513 623.526 677.591 625.858 679.527 627.618C681.463 629.378 683.839 630.258 686.655 630.258C690.703 630.258 693.563 628.564 695.235 625.176H703.352C702.253 628.52 700.251 631.27 697.347 633.426C694.487 635.538 690.923 636.594 686.655 636.594C683.179 636.594 680.055 635.824 677.283 634.284C674.555 632.7 672.399 630.5 670.815 627.684C669.275 624.824 668.505 621.524 668.505 617.784C668.505 614.044 669.253 610.766 670.749 607.95C672.289 605.09 674.423 602.89 677.151 601.35C679.923 599.81 683.091 599.04 686.655 599.04C690.087 599.04 693.145 599.788 695.829 601.284C698.513 602.78 700.603 604.892 702.099 607.62C703.595 610.304 704.343 613.406 704.343 616.926ZM696.489 614.55C696.445 611.778 695.455 609.556 693.519 607.884C691.583 606.212 689.185 605.376 686.325 605.376C683.729 605.376 681.507 606.212 679.659 607.884C677.811 609.512 676.711 611.734 676.359 614.55H696.489Z" fill="white"/>
<path d="M176 671.5L171.873 673.874L160.627 680.376L156.5 682.75V705.25L160.627 707.624L171.976 714.126L176.103 716.5L180.23 714.126L191.373 707.624L195.5 705.25V682.75L191.373 680.376L180.127 673.874L176 671.5ZM164.754 700.502V687.498L176 680.995L187.246 687.498V700.502L176 707.005L164.754 700.502Z" fill="white"/>
<path d="M239.777 682.088L239.777 707H236.501L236.501 688.424L228.221 707H225.917L217.601 688.388L217.601 707H214.325L214.325 682.088H217.853L227.069 702.68L236.285 682.088H239.777ZM263.333 696.38C263.333 697.004 263.297 697.664 263.225 698.36H247.457C247.577 700.304 248.237 701.828 249.437 702.932C250.661 704.012 252.137 704.552 253.865 704.552C255.281 704.552 256.457 704.228 257.393 703.58C258.353 702.908 259.025 702.02 259.409 700.916H262.937C262.409 702.812 261.353 704.36 259.769 705.56C258.185 706.736 256.217 707.324 253.865 707.324C251.993 707.324 250.313 706.904 248.825 706.064C247.361 705.224 246.209 704.036 245.369 702.5C244.529 700.94 244.109 699.14 244.109 697.1C244.109 695.06 244.517 693.272 245.333 691.736C246.149 690.2 247.289 689.024 248.753 688.208C250.241 687.368 251.945 686.948 253.865 686.948C255.737 686.948 257.393 687.356 258.833 688.172C260.273 688.988 261.377 690.116 262.145 691.556C262.937 692.972 263.333 694.58 263.333 696.38ZM259.949 695.696C259.949 694.448 259.673 693.38 259.121 692.492C258.569 691.58 257.813 690.896 256.853 690.44C255.917 689.96 254.873 689.72 253.721 689.72C252.065 689.72 250.649 690.248 249.473 691.304C248.321 692.36 247.661 693.824 247.493 695.696H259.949ZM266.433 697.064C266.433 695.048 266.841 693.284 267.657 691.772C268.473 690.236 269.589 689.048 271.005 688.208C272.445 687.368 274.053 686.948 275.829 686.948C277.365 686.948 278.793 687.308 280.113 688.028C281.433 688.724 282.441 689.648 283.137 690.8L283.137 680.36H286.449L286.449 707H283.137L283.137 703.292C282.489 704.468 281.529 705.44 280.257 706.208C278.985 706.952 277.497 707.324 275.793 707.324C274.041 707.324 272.445 706.892 271.005 706.028C269.589 705.164 268.473 703.952 267.657 702.392C266.841 700.832 266.433 699.056 266.433 697.064ZM283.137 697.1C283.137 695.612 282.837 694.316 282.237 693.212C281.637 692.108 280.821 691.268 279.789 690.692C278.781 690.092 277.665 689.792 276.441 689.792C275.217 689.792 274.101 690.08 273.093 690.656C272.085 691.232 271.281 692.072 270.681 693.176C270.081 694.28 269.781 695.576 269.781 697.064C269.781 698.576 270.081 699.896 270.681 701.024C271.281 702.128 272.085 702.98 273.093 703.58C274.101 704.156 275.217 704.444 276.441 704.444C277.665 704.444 278.781 704.156 279.789 703.58C280.821 702.98 281.637 702.128 282.237 701.024C282.837 699.896 283.137 698.588 283.137 697.1ZM293.677 684.068C293.053 684.068 292.525 683.852 292.093 683.42C291.661 682.988 291.445 682.46 291.445 681.836C291.445 681.212 291.661 680.684 292.093 680.252C292.525 679.82 293.053 679.604 293.677 679.604C294.277 679.604 294.781 679.82 295.189 680.252C295.621 680.684 295.837 681.212 295.837 681.836C295.837 682.46 295.621 682.988 295.189 683.42C294.781 683.852 294.277 684.068 293.677 684.068ZM295.261 687.272L295.261 707H291.985L291.985 687.272H295.261ZM299.62 697.1C299.62 695.06 300.028 693.284 300.844 691.772C301.66 690.236 302.788 689.048 304.228 688.208C305.692 687.368 307.36 686.948 309.232 686.948C311.656 686.948 313.648 687.536 315.208 688.712C316.792 689.888 317.836 691.52 318.34 693.608H314.812C314.476 692.408 313.816 691.46 312.832 690.764C311.872 690.068 310.672 689.72 309.232 689.72C307.36 689.72 305.848 690.368 304.696 691.664C303.544 692.936 302.968 694.748 302.968 697.1C302.968 699.476 303.544 701.312 304.696 702.608C305.848 703.904 307.36 704.552 309.232 704.552C310.672 704.552 311.872 704.216 312.832 703.544C313.792 702.872 314.452 701.912 314.812 700.664H318.34C317.812 702.68 316.756 704.3 315.172 705.524C313.588 706.724 311.608 707.324 309.232 707.324C307.36 707.324 305.692 706.904 304.228 706.064C302.788 705.224 301.66 704.036 300.844 702.5C300.028 700.964 299.62 699.164 299.62 697.1ZM321.487 697.064C321.487 695.048 321.895 693.284 322.711 691.772C323.527 690.236 324.643 689.048 326.059 688.208C327.499 687.368 329.095 686.948 330.847 686.948C332.575 686.948 334.075 687.32 335.347 688.064C336.619 688.808 337.567 689.744 338.191 690.872L338.191 687.272H341.503L341.503 707H338.191L338.191 703.328C337.543 704.48 336.571 705.44 335.275 706.208C334.003 706.952 332.515 707.324 330.811 707.324C329.059 707.324 327.475 706.892 326.059 706.028C324.643 705.164 323.527 703.952 322.711 702.392C321.895 700.832 321.487 699.056 321.487 697.064ZM338.191 697.1C338.191 695.612 337.891 694.316 337.291 693.212C336.691 692.108 335.875 691.268 334.843 690.692C333.835 690.092 332.719 689.792 331.495 689.792C330.271 689.792 329.155 690.08 328.147 690.656C327.139 691.232 326.335 692.072 325.735 693.176C325.135 694.28 324.835 695.576 324.835 697.064C324.835 698.576 325.135 699.896 325.735 701.024C326.335 702.128 327.139 702.98 328.147 703.58C329.155 704.156 330.271 704.444 331.495 704.444C332.719 704.444 333.835 704.156 334.843 703.58C335.875 702.98 336.691 702.128 337.291 701.024C337.891 699.896 338.191 698.588 338.191 697.1ZM350.316 680.36L350.316 707H347.04L347.04 680.36H350.316ZM364.273 697.064C364.273 695.048 364.681 693.284 365.497 691.772C366.313 690.236 367.429 689.048 368.845 688.208C370.285 687.368 371.893 686.948 373.669 686.948C375.205 686.948 376.633 687.308 377.953 688.028C379.273 688.724 380.281 689.648 380.977 690.8L380.977 680.36H384.289L384.289 707H380.977L380.977 703.292C380.329 704.468 379.369 705.44 378.097 706.208C376.825 706.952 375.337 707.324 373.633 707.324C371.881 707.324 370.285 706.892 368.845 706.028C367.429 705.164 366.313 703.952 365.497 702.392C364.681 700.832 364.273 699.056 364.273 697.064ZM380.977 697.1C380.977 695.612 380.677 694.316 380.077 693.212C379.477 692.108 378.661 691.268 377.629 690.692C376.621 690.092 375.505 689.792 374.281 689.792C373.057 689.792 371.941 690.08 370.933 690.656C369.925 691.232 369.121 692.072 368.521 693.176C367.921 694.28 367.621 695.576 367.621 697.064C367.621 698.576 367.921 699.896 368.521 701.024C369.121 702.128 369.925 702.98 370.933 703.58C371.941 704.156 373.057 704.444 374.281 704.444C375.505 704.444 376.621 704.156 377.629 703.58C378.661 702.98 379.477 702.128 380.077 701.024C380.677 699.896 380.977 698.588 380.977 697.1ZM388.601 697.064C388.601 695.048 389.009 693.284 389.825 691.772C390.641 690.236 391.757 689.048 393.173 688.208C394.613 687.368 396.209 686.948 397.961 686.948C399.689 686.948 401.189 687.32 402.461 688.064C403.733 688.808 404.681 689.744 405.305 690.872L405.305 687.272H408.617L408.617 707H405.305L405.305 703.328C404.657 704.48 403.685 705.44 402.389 706.208C401.117 706.952 399.629 707.324 397.925 707.324C396.173 707.324 394.589 706.892 393.173 706.028C391.757 705.164 390.641 703.952 389.825 702.392C389.009 700.832 388.601 699.056 388.601 697.064ZM405.305 697.1C405.305 695.612 405.005 694.316 404.405 693.212C403.805 692.108 402.989 691.268 401.957 690.692C400.949 690.092 399.833 689.792 398.609 689.792C397.385 689.792 396.269 690.08 395.261 690.656C394.253 691.232 393.449 692.072 392.849 693.176C392.249 694.28 391.949 695.576 391.949 697.064C391.949 698.576 392.249 699.896 392.849 701.024C393.449 702.128 394.253 702.98 395.261 703.58C396.269 704.156 397.385 704.444 398.609 704.444C399.833 704.444 400.949 704.156 401.957 703.58C402.989 702.98 403.805 702.128 404.405 701.024C405.005 699.896 405.305 698.588 405.305 697.1ZM418.149 689.972L418.149 701.6C418.149 702.56 418.353 703.244 418.761 703.652C419.169 704.036 419.877 704.228 420.885 704.228H423.297L423.297 707H420.345C418.521 707 417.153 706.58 416.241 705.74C415.329 704.9 414.873 703.52 414.873 701.6L414.873 689.972H412.317L412.317 687.272H414.873L414.873 682.304H418.149L418.149 687.272H423.297L423.297 689.972H418.149ZM426.042 697.064C426.042 695.048 426.45 693.284 427.266 691.772C428.082 690.236 429.198 689.048 430.614 688.208C432.054 687.368 433.65 686.948 435.402 686.948C437.13 686.948 438.63 687.32 439.902 688.064C441.174 688.808 442.122 689.744 442.746 690.872L442.746 687.272H446.058L446.058 707H442.746L442.746 703.328C442.098 704.48 441.126 705.44 439.83 706.208C438.558 706.952 437.07 707.324 435.366 707.324C433.614 707.324 432.03 706.892 430.614 706.028C429.198 705.164 428.082 703.952 427.266 702.392C426.45 700.832 426.042 699.056 426.042 697.064ZM442.746 697.1C442.746 695.612 442.446 694.316 441.846 693.212C441.246 692.108 440.43 691.268 439.398 690.692C438.39 690.092 437.274 689.792 436.05 689.792C434.826 689.792 433.71 690.08 432.702 690.656C431.694 691.232 430.89 692.072 430.29 693.176C429.69 694.28 429.39 695.576 429.39 697.064C429.39 698.576 429.69 699.896 430.29 701.024C430.89 702.128 431.694 702.98 432.702 703.58C433.71 704.156 434.826 704.444 436.05 704.444C437.274 704.444 438.39 704.156 439.398 703.58C440.43 702.98 441.246 702.128 441.846 701.024C442.446 699.896 442.746 698.588 442.746 697.1ZM479.192 696.38C479.192 697.004 479.156 697.664 479.084 698.36H463.316C463.436 700.304 464.096 701.828 465.296 702.932C466.52 704.012 467.996 704.552 469.724 704.552C471.14 704.552 472.316 704.228 473.252 703.58C474.212 702.908 474.884 702.02 475.268 700.916H478.796C478.268 702.812 477.212 704.36 475.628 705.56C474.044 706.736 472.076 707.324 469.724 707.324C467.852 707.324 466.172 706.904 464.684 706.064C463.22 705.224 462.068 704.036 461.228 702.5C460.388 700.94 459.968 699.14 459.968 697.1C459.968 695.06 460.376 693.272 461.192 691.736C462.008 690.2 463.148 689.024 464.612 688.208C466.1 687.368 467.804 686.948 469.724 686.948C471.596 686.948 473.252 687.356 474.692 688.172C476.132 688.988 477.236 690.116 478.004 691.556C478.796 692.972 479.192 694.58 479.192 696.38ZM475.808 695.696C475.808 694.448 475.532 693.38 474.98 692.492C474.428 691.58 473.672 690.896 472.712 690.44C471.776 689.96 470.732 689.72 469.58 689.72C467.924 689.72 466.508 690.248 465.332 691.304C464.18 692.36 463.52 693.824 463.352 695.696H475.808ZM493.128 686.912C495.528 686.912 497.472 687.644 498.96 689.108C500.448 690.548 501.192 692.636 501.192 695.372L501.192 707H497.952L497.952 695.84C497.952 693.872 497.46 692.372 496.476 691.34C495.492 690.284 494.148 689.756 492.444 689.756C490.716 689.756 489.336 690.296 488.304 691.376C487.296 692.456 486.792 694.028 486.792 696.092L486.792 707H483.516L483.516 687.272H486.792L486.792 690.08C487.44 689.072 488.316 688.292 489.42 687.74C490.548 687.188 491.784 686.912 493.128 686.912ZM505.319 697.1C505.319 695.06 505.727 693.284 506.543 691.772C507.359 690.236 508.487 689.048 509.927 688.208C511.391 687.368 513.059 686.948 514.931 686.948C517.355 686.948 519.347 687.536 520.907 688.712C522.491 689.888 523.535 691.52 524.039 693.608H520.511C520.175 692.408 519.515 691.46 518.531 690.764C517.571 690.068 516.371 689.72 514.931 689.72C513.059 689.72 511.547 690.368 510.395 691.664C509.243 692.936 508.667 694.748 508.667 697.1C508.667 699.476 509.243 701.312 510.395 702.608C511.547 703.904 513.059 704.552 514.931 704.552C516.371 704.552 517.571 704.216 518.531 703.544C519.491 702.872 520.151 701.912 520.511 700.664H524.039C523.511 702.68 522.455 704.3 520.871 705.524C519.287 706.724 517.307 707.324 514.931 707.324C513.059 707.324 511.391 706.904 509.927 706.064C508.487 705.224 507.359 704.036 506.543 702.5C505.727 700.964 505.319 699.164 505.319 697.1ZM531.687 690.476C532.263 689.348 533.079 688.472 534.135 687.848C535.215 687.224 536.523 686.912 538.059 686.912L538.059 690.296H537.195C533.523 690.296 531.687 692.288 531.687 696.272L531.687 707H528.411L528.411 687.272H531.687L531.687 690.476ZM558.832 687.272L546.952 716.288H543.568L547.456 706.784L539.5 687.272H543.136L549.328 703.256L555.448 687.272H558.832ZM565.402 690.908C566.05 689.78 567.01 688.844 568.282 688.1C569.578 687.332 571.078 686.948 572.782 686.948C574.534 686.948 576.118 687.368 577.534 688.208C578.974 689.048 580.102 690.236 580.918 691.772C581.734 693.284 582.142 695.048 582.142 697.064C582.142 699.056 581.734 700.832 580.918 702.392C580.102 703.952 578.974 705.164 577.534 706.028C576.118 706.892 574.534 707.324 572.782 707.324C571.102 707.324 569.614 706.952 568.318 706.208C567.046 705.44 566.074 704.492 565.402 703.364L565.402 716.36H562.126L562.126 687.272H565.402L565.402 690.908ZM578.794 697.064C578.794 695.576 578.494 694.28 577.894 693.176C577.294 692.072 576.478 691.232 575.446 690.656C574.438 690.08 573.322 689.792 572.098 689.792C570.898 689.792 569.782 690.092 568.75 690.692C567.742 691.268 566.926 692.12 566.302 693.248C565.702 694.352 565.402 695.636 565.402 697.1C565.402 698.588 565.702 699.896 566.302 701.024C566.926 702.128 567.742 702.98 568.75 703.58C569.782 704.156 570.898 704.444 572.098 704.444C573.322 704.444 574.438 704.156 575.446 703.58C576.478 702.98 577.294 702.128 577.894 701.024C578.494 699.896 578.794 698.576 578.794 697.064ZM590.45 689.972L590.45 701.6C590.45 702.56 590.654 703.244 591.062 703.652C591.47 704.036 592.178 704.228 593.186 704.228H595.598L595.598 707H592.646C590.822 707 589.454 706.58 588.542 705.74C587.63 704.9 587.174 703.52 587.174 701.6L587.174 689.972H584.618L584.618 687.272H587.174L587.174 682.304H590.45L590.45 687.272H595.598L595.598 689.972H590.45ZM617.567 696.38C617.567 697.004 617.531 697.664 617.459 698.36H601.691C601.811 700.304 602.471 701.828 603.671 702.932C604.895 704.012 606.371 704.552 608.099 704.552C609.515 704.552 610.691 704.228 611.627 703.58C612.587 702.908 613.259 702.02 613.643 700.916H617.171C616.643 702.812 615.587 704.36 614.003 705.56C612.419 706.736 610.451 707.324 608.099 707.324C606.227 707.324 604.547 706.904 603.059 706.064C601.595 705.224 600.443 704.036 599.603 702.5C598.763 700.94 598.343 699.14 598.343 697.1C598.343 695.06 598.751 693.272 599.567 691.736C600.383 690.2 601.523 689.024 602.987 688.208C604.475 687.368 606.179 686.948 608.099 686.948C609.971 686.948 611.627 687.356 613.067 688.172C614.507 688.988 615.611 690.116 616.379 691.556C617.171 692.972 617.567 694.58 617.567 696.38ZM614.183 695.696C614.183 694.448 613.907 693.38 613.355 692.492C612.803 691.58 612.047 690.896 611.087 690.44C610.151 689.96 609.107 689.72 607.955 689.72C606.299 689.72 604.883 690.248 603.707 691.304C602.555 692.36 601.895 693.824 601.727 695.696H614.183ZM620.667 697.064C620.667 695.048 621.075 693.284 621.891 691.772C622.707 690.236 623.823 689.048 625.239 688.208C626.679 687.368 628.287 686.948 630.063 686.948C631.599 686.948 633.027 687.308 634.347 688.028C635.667 688.724 636.675 689.648 637.371 690.8L637.371 680.36H640.683L640.683 707H637.371L637.371 703.292C636.723 704.468 635.763 705.44 634.491 706.208C633.219 706.952 631.731 707.324 630.027 707.324C628.275 707.324 626.679 706.892 625.239 706.028C623.823 705.164 622.707 703.952 621.891 702.392C621.075 700.832 620.667 699.056 620.667 697.064ZM637.371 697.1C637.371 695.612 637.071 694.316 636.471 693.212C635.871 692.108 635.055 691.268 634.023 690.692C633.015 690.092 631.899 689.792 630.675 689.792C629.451 689.792 628.335 690.08 627.327 690.656C626.319 691.232 625.515 692.072 624.915 693.176C624.315 694.28 624.015 695.576 624.015 697.064C624.015 698.576 624.315 699.896 624.915 701.024C625.515 702.128 626.319 702.98 627.327 703.58C628.335 704.156 629.451 704.444 630.675 704.444C631.899 704.444 633.015 704.156 634.023 703.58C635.055 702.98 635.871 702.128 636.471 701.024C637.071 699.896 637.371 698.588 637.371 697.1Z" fill="white"/>
<path d="M254.251 113.628L254.251 174H239.545L239.545 137.794L226.043 174H214.175L200.587 137.708L200.587 174H185.881L185.881 113.628H203.253L220.195 155.424L236.965 113.628H254.251ZM310.062 149.232C310.062 150.608 309.976 152.041 309.804 153.532H276.522C276.751 156.513 277.697 158.807 279.36 160.412C281.08 161.96 283.173 162.734 285.638 162.734C289.307 162.734 291.859 161.186 293.292 158.09H308.944C308.141 161.243 306.679 164.081 304.558 166.604C302.494 169.127 299.885 171.105 296.732 172.538C293.579 173.971 290.053 174.688 286.154 174.688C281.453 174.688 277.267 173.685 273.598 171.678C269.929 169.671 267.062 166.805 264.998 163.078C262.934 159.351 261.902 154.994 261.902 150.006C261.902 145.018 262.905 140.661 264.912 136.934C266.976 133.207 269.843 130.341 273.512 128.334C277.181 126.327 281.395 125.324 286.154 125.324C290.798 125.324 294.926 126.299 298.538 128.248C302.15 130.197 304.959 132.978 306.966 136.59C309.03 140.202 310.062 144.416 310.062 149.232ZM295.012 145.362C295.012 142.839 294.152 140.833 292.432 139.342C290.712 137.851 288.562 137.106 285.982 137.106C283.517 137.106 281.424 137.823 279.704 139.256C278.041 140.689 277.009 142.725 276.608 145.362H295.012ZM344.566 161.53L344.566 174H337.084C331.752 174 327.596 172.71 324.614 170.13C321.633 167.493 320.142 163.221 320.142 157.316L320.142 138.224H314.294L314.294 126.012H320.142L320.142 114.316H334.848L334.848 126.012H344.48L344.48 138.224H334.848L334.848 157.488C334.848 158.921 335.192 159.953 335.88 160.584C336.568 161.215 337.715 161.53 339.32 161.53H344.566ZM349.834 149.92C349.834 144.989 350.751 140.661 352.586 136.934C354.478 133.207 357.029 130.341 360.24 128.334C363.45 126.327 367.034 125.324 370.99 125.324C374.372 125.324 377.325 126.012 379.848 127.388C382.428 128.764 384.406 130.57 385.782 132.806L385.782 126.012L400.488 126.012L400.488 174H385.782L385.782 167.206C384.348 169.442 382.342 171.248 379.762 172.624C377.239 174 374.286 174.688 370.904 174.688C367.005 174.688 363.45 173.685 360.24 171.678C357.029 169.614 354.478 166.719 352.586 162.992C350.751 159.208 349.834 154.851 349.834 149.92ZM385.782 150.006C385.782 146.337 384.75 143.441 382.686 141.32C380.679 139.199 378.214 138.138 375.29 138.138C372.366 138.138 369.872 139.199 367.808 141.32C365.801 143.384 364.798 146.251 364.798 149.92C364.798 153.589 365.801 156.513 367.808 158.692C369.872 160.813 372.366 161.874 375.29 161.874C378.214 161.874 380.679 160.813 382.686 158.692C384.75 156.571 385.782 153.675 385.782 150.006ZM408.633 143.728C408.633 137.765 409.923 132.462 412.503 127.818C415.083 123.117 418.666 119.476 423.253 116.896C427.897 114.259 433.143 112.94 438.991 112.94C446.158 112.94 452.292 114.832 457.395 118.616C462.498 122.4 465.909 127.56 467.629 134.096H451.461C450.257 131.573 448.537 129.653 446.301 128.334C444.122 127.015 441.628 126.356 438.819 126.356C434.29 126.356 430.62 127.933 427.811 131.086C425.002 134.239 423.597 138.453 423.597 143.728C423.597 149.003 425.002 153.217 427.811 156.37C430.62 159.523 434.29 161.1 438.819 161.1C441.628 161.1 444.122 160.441 446.301 159.122C448.537 157.803 450.257 155.883 451.461 153.36L467.629 153.36C465.909 159.896 462.498 165.056 457.395 168.84C452.292 172.567 446.158 174.43 438.991 174.43C433.143 174.43 427.897 173.14 423.253 170.56C418.666 167.923 415.083 164.282 412.503 159.638C409.923 154.994 408.633 149.691 408.633 143.728ZM473.711 149.92C473.711 144.989 474.628 140.661 476.463 136.934C478.355 133.207 480.906 130.341 484.117 128.334C487.327 126.327 490.911 125.324 494.867 125.324C498.249 125.324 501.202 126.012 503.725 127.388C506.305 128.764 508.283 130.57 509.659 132.806L509.659 126.012H524.365L524.365 174H509.659L509.659 167.206C508.225 169.442 506.219 171.248 503.639 172.624C501.116 174 498.163 174.688 494.781 174.688C490.882 174.688 487.327 173.685 484.117 171.678C480.906 169.614 478.355 166.719 476.463 162.992C474.628 159.208 473.711 154.851 473.711 149.92ZM509.659 150.006C509.659 146.337 508.627 143.441 506.563 141.32C504.556 139.199 502.091 138.138 499.167 138.138C496.243 138.138 493.749 139.199 491.685 141.32C489.678 143.384 488.675 146.251 488.675 149.92C488.675 153.589 489.678 156.513 491.685 158.692C493.749 160.813 496.243 161.874 499.167 161.874C502.091 161.874 504.556 160.813 506.563 158.692C508.627 156.571 509.659 153.675 509.659 150.006ZM549.71 134.01C551.43 131.373 553.58 129.309 556.16 127.818C558.74 126.27 561.607 125.496 564.76 125.496L564.76 141.062H560.718C557.049 141.062 554.297 141.865 552.462 143.47C550.627 145.018 549.71 147.77 549.71 151.726L549.71 174H535.004L535.004 126.012H549.71L549.71 134.01ZM617.025 149.232C617.025 150.608 616.939 152.041 616.767 153.532H583.485C583.714 156.513 584.66 158.807 586.323 160.412C588.043 161.96 590.136 162.734 592.601 162.734C596.27 162.734 598.822 161.186 600.255 158.09H615.907C615.104 161.243 613.642 164.081 611.521 166.604C609.457 169.127 606.848 171.105 603.695 172.538C600.542 173.971 597.016 174.688 593.117 174.688C588.416 174.688 584.23 173.685 580.561 171.678C576.892 169.671 574.025 166.805 571.961 163.078C569.897 159.351 568.865 154.994 568.865 150.006C568.865 145.018 569.868 140.661 571.875 136.934C573.939 133.207 576.806 130.341 580.475 128.334C584.144 126.327 588.358 125.324 593.117 125.324C597.761 125.324 601.889 126.299 605.501 128.248C609.113 130.197 611.922 132.978 613.929 136.59C615.993 140.202 617.025 144.416 617.025 149.232ZM601.975 145.362C601.975 142.839 601.115 140.833 599.395 139.342C597.675 137.851 595.525 137.106 592.945 137.106C590.48 137.106 588.387 137.823 586.667 139.256C585.004 140.689 583.972 142.725 583.571 145.362H601.975Z" fill="white"/>
<path d="M264.86 354.632C261.67 332.307 267.138 309.981 284.911 291.879C301.469 275.135 325.47 262.313 353.876 268.648C376.966 273.777 391.853 289.918 397.929 298.215C399.296 300.025 402.03 300.025 403.397 298.215C409.626 290.069 424.36 273.928 447.45 268.648C475.856 262.313 499.857 275.135 516.415 291.879C561.227 337.134 527.352 408.787 478.287 441.823C458.083 455.4 427.398 476.971 413.119 490.849C409.018 494.771 405.676 498.391 403.245 501.257C401.878 502.766 399.6 502.766 398.233 501.257C395.802 498.391 392.46 494.771 388.359 490.849C374.08 477.122 343.243 455.55 323.191 441.823C306.026 430.208 293.418 418.291 282.633 400.038" stroke="white" stroke-width="10" stroke-miterlimit="10" stroke-linecap="round" stroke-linejoin="round"/>
<path d="M271.236 378.167H311.491L323.491 358.858L339.745 402.454L358.885 305.759L380.912 430.964L408.407 354.333L424.812 402.755L439.395 378.167H476.916" stroke="white" stroke-width="10" stroke-miterlimit="10" stroke-linecap="round" stroke-linejoin="round"/>
<path d="M476.913 390.08C483.539 390.08 488.91 384.745 488.91 378.163C488.91 371.582 483.539 366.246 476.913 366.246C470.287 366.246 464.916 371.582 464.916 378.163C464.916 384.745 470.287 390.08 476.913 390.08Z" fill="white"/>
</svg>
