<svg width="800" height="800" xmlns="http://www.w3.org/2000/svg">
    <rect height="800" width="800" fill="#2370b9"/> 
  <path d="m264.86,354.632c-3.19,-22.325 2.278,-44.651 20.051,-62.753c16.558,-16.744 40.559,-29.566 68.965,-23.231c23.09,5.129 37.977,21.27 44.053,29.567c1.367,1.81 4.101,1.81 5.468,0c6.229,-8.146 20.963,-24.287 44.053,-29.567c28.406,-6.335 52.407,6.487 68.965,23.231c44.812,45.255 10.937,116.908 -38.128,149.944c-20.204,13.577 -50.889,35.148 -65.168,49.026c-4.101,3.922 -7.443,7.542 -9.874,10.408c-1.367,1.509 -3.645,1.509 -5.012,0c-2.431,-2.866 -5.773,-6.486 -9.874,-10.408c-14.279,-13.727 -45.116,-35.299 -65.168,-49.026c-17.165,-11.615 -29.773,-23.532 -40.558,-41.785" stroke="white" stroke-width="10" stroke-miterlimit="10" stroke-linecap="round" stroke-linejoin="round" id="svg_6"/>
  <path d="m271.236,378.167l40.255,0l12,-19.309l16.254,43.596l19.14,-96.695l22.027,125.205l27.495,-76.631l16.405,48.422l14.583,-24.588l37.521,0" stroke="white" stroke-width="10" stroke-miterlimit="10" stroke-linecap="round" stroke-linejoin="round" id="svg_7"/>
  <path d="m476.913,390.08c6.626,0 11.997,-5.335 11.997,-11.917c0,-6.581 -5.371,-11.917 -11.997,-11.917c-6.626,0 -11.997,5.336 -11.997,11.917c0,6.582 5.371,11.917 11.997,11.917z" fill="white" id="svg_8"/>
</svg>