<svg width="800" height="800" xmlns="http://www.w3.org/2000/svg" fill="none">
  <rect fill="#2370b9" height="800" width="800"/>
  <path d="m176,669.74562l-4.127,2.374l-11.246,6.502l-4.127,2.374l0,22.5l4.127,2.374l11.349,6.502l4.127,2.374l4.127,-2.374l11.143,-6.502l4.127,-2.374l0,-22.5l-4.127,-2.374l-11.246,-6.502l-4.127,-2.374zm-11.246,29.002l0,-13.004l11.246,-6.503l11.246,6.503l0,13.004l-11.246,6.503l-11.246,-6.503z" fill="white"/>
  <path d="m264.86,352.87762c-3.19,-22.325 2.278,-44.651 20.051,-62.753c16.558,-16.744 40.559,-29.566 68.965,-23.231c23.09,5.129 37.977,21.27 44.053,29.567c1.367,1.81 4.101,1.81 5.468,0c6.229,-8.146 20.963,-24.287 44.053,-29.567c28.406,-6.335 52.407,6.487 68.965,23.231c44.812,45.255 10.937,116.908 -38.128,149.944c-20.204,13.577 -50.889,35.148 -65.168,49.026c-4.101,3.922 -7.443,7.542 -9.874,10.408c-1.367,1.509 -3.645,1.509 -5.012,0c-2.431,-2.866 -5.773,-6.486 -9.874,-10.408c-14.279,-13.727 -45.116,-35.299 -65.168,-49.026c-17.165,-11.615 -29.773,-23.532 -40.558,-41.785" stroke="white" stroke-width="10" stroke-miterlimit="10" stroke-linecap="round" stroke-linejoin="round"/>
  <path d="m271.236,376.41262l40.255,0l12,-19.309l16.254,43.596l19.14,-96.695l22.027,125.205l27.495,-76.631l16.405,48.422l14.583,-24.588l37.521,0" stroke="white" stroke-width="10" stroke-miterlimit="10" stroke-linecap="round" stroke-linejoin="round"/>
  <path d="m476.913,388.32562c6.626,0 11.997,-5.335 11.997,-11.917c0,-6.581 -5.371,-11.917 -11.997,-11.917c-6.626,0 -11.997,5.336 -11.997,11.917c0,6.582 5.371,11.917 11.997,11.917z" fill="white"/>
  <path fill="white" d="m254.251,113.628l0,60.372l-14.706,0l0,-36.206l-13.502,36.206l-11.868,0l-13.588,-36.292l0,36.292l-14.706,0l0,-60.372l17.372,0l16.942,41.796l16.77,-41.796l17.286,0zm55.811,35.604c0,1.376 -0.086,2.809 -0.258,4.3l-33.282,0c0.229,2.981 1.175,5.275 2.838,6.88c1.72,1.548 3.813,2.322 6.278,2.322c3.669,0 6.221,-1.548 7.654,-4.644l15.652,0c-0.803,3.153 -2.265,5.991 -4.386,8.514c-2.064,2.523 -4.673,4.501 -7.826,5.934c-3.153,1.433 -6.679,2.15 -10.578,2.15c-4.701,0 -8.887,-1.003 -12.556,-3.01c-3.669,-2.007 -6.536,-4.873 -8.6,-8.6c-2.064,-3.727 -3.096,-8.084 -3.096,-13.072c0,-4.988 1.003,-9.345 3.01,-13.072c2.064,-3.727 4.931,-6.593 8.6,-8.6c3.669,-2.007 7.883,-3.01 12.642,-3.01c4.644,0 8.772,0.975 12.384,2.924c3.612,1.949 6.421,4.73 8.428,8.342c2.064,3.612 3.096,7.826 3.096,12.642zm-15.05,-3.87c0,-2.523 -0.86,-4.529 -2.58,-6.02c-1.72,-1.491 -3.87,-2.236 -6.45,-2.236c-2.465,0 -4.558,0.717 -6.278,2.15c-1.663,1.433 -2.695,3.469 -3.096,6.106l18.404,0zm49.554,16.168l0,12.47l-7.482,0c-5.332,0 -9.488,-1.29 -12.47,-3.87c-2.981,-2.637 -4.472,-6.909 -4.472,-12.814l0,-19.092l-5.848,0l0,-12.212l5.848,0l0,-11.696l14.706,0l0,11.696l9.632,0l0,12.212l-9.632,0l0,19.264c0,1.433 0.344,2.465 1.032,3.096c0.688,0.631 1.835,0.946 3.44,0.946l5.246,0zm5.268,-11.61c0,-4.931 0.917,-9.259 2.752,-12.986c1.892,-3.727 4.443,-6.593 7.654,-8.6c3.21,-2.007 6.794,-3.01 10.75,-3.01c3.382,0 6.335,0.688 8.858,2.064c2.58,1.376 4.558,3.182 5.934,5.418l0,-6.794l14.706,0l0,47.988l-14.706,0l0,-6.794c-1.434,2.236 -3.44,4.042 -6.02,5.418c-2.523,1.376 -5.476,2.064 -8.858,2.064c-3.899,0 -7.454,-1.003 -10.664,-3.01c-3.211,-2.064 -5.762,-4.959 -7.654,-8.686c-1.835,-3.784 -2.752,-8.141 -2.752,-13.072zm35.948,0.086c0,-3.669 -1.032,-6.565 -3.096,-8.686c-2.007,-2.121 -4.472,-3.182 -7.396,-3.182c-2.924,0 -5.418,1.061 -7.482,3.182c-2.007,2.064 -3.01,4.931 -3.01,8.6c0,3.669 1.003,6.593 3.01,8.772c2.064,2.121 4.558,3.182 7.482,3.182c2.924,0 5.389,-1.061 7.396,-3.182c2.064,-2.121 3.096,-5.017 3.096,-8.686zm22.851,-6.278c0,-5.963 1.29,-11.266 3.87,-15.91c2.58,-4.701 6.163,-8.342 10.75,-10.922c4.644,-2.637 9.89,-3.956 15.738,-3.956c7.167,0 13.301,1.892 18.404,5.676c5.103,3.784 8.514,8.944 10.234,15.48l-16.168,0c-1.204,-2.523 -2.924,-4.443 -5.16,-5.762c-2.179,-1.319 -4.673,-1.978 -7.482,-1.978c-4.529,0 -8.199,1.577 -11.008,4.73c-2.809,3.153 -4.214,7.367 -4.214,12.642c0,5.275 1.405,9.489 4.214,12.642c2.809,3.153 6.479,4.73 11.008,4.73c2.809,0 5.303,-0.659 7.482,-1.978c2.236,-1.319 3.956,-3.239 5.16,-5.762l16.168,0c-1.72,6.536 -5.131,11.696 -10.234,15.48c-5.103,3.727 -11.237,5.59 -18.404,5.59c-5.848,0 -11.094,-1.29 -15.738,-3.87c-4.587,-2.637 -8.17,-6.278 -10.75,-10.922c-2.58,-4.644 -3.87,-9.947 -3.87,-15.91zm65.078,6.192c0,-4.931 0.917,-9.259 2.752,-12.986c1.892,-3.727 4.443,-6.593 7.654,-8.6c3.21,-2.007 6.794,-3.01 10.75,-3.01c3.382,0 6.335,0.688 8.858,2.064c2.58,1.376 4.558,3.182 5.934,5.418l0,-6.794l14.706,0l0,47.988l-14.706,0l0,-6.794c-1.434,2.236 -3.44,4.042 -6.02,5.418c-2.523,1.376 -5.476,2.064 -8.858,2.064c-3.899,0 -7.454,-1.003 -10.664,-3.01c-3.211,-2.064 -5.762,-4.959 -7.654,-8.686c-1.835,-3.784 -2.752,-8.141 -2.752,-13.072zm35.948,0.086c0,-3.669 -1.032,-6.565 -3.096,-8.686c-2.007,-2.121 -4.472,-3.182 -7.396,-3.182c-2.924,0 -5.418,1.061 -7.482,3.182c-2.007,2.064 -3.01,4.931 -3.01,8.6c0,3.669 1.003,6.593 3.01,8.772c2.064,2.121 4.558,3.182 7.482,3.182c2.924,0 5.389,-1.061 7.396,-3.182c2.064,-2.121 3.096,-5.017 3.096,-8.686zm40.051,-15.996c1.72,-2.637 3.87,-4.701 6.45,-6.192c2.58,-1.548 5.447,-2.322 8.6,-2.322l0,15.566l-4.042,0c-3.669,0 -6.421,0.803 -8.256,2.408c-1.835,1.548 -2.752,4.3 -2.752,8.256l0,22.274l-14.706,0l0,-47.988l14.706,0l0,7.998zm67.315,15.222c0,1.376 -0.086,2.809 -0.258,4.3l-33.282,0c0.229,2.981 1.175,5.275 2.838,6.88c1.72,1.548 3.813,2.322 6.278,2.322c3.669,0 6.221,-1.548 7.654,-4.644l15.652,0c-0.803,3.153 -2.265,5.991 -4.386,8.514c-2.064,2.523 -4.673,4.501 -7.826,5.934c-3.153,1.433 -6.679,2.15 -10.578,2.15c-4.701,0 -8.887,-1.003 -12.556,-3.01c-3.669,-2.007 -6.536,-4.873 -8.6,-8.6c-2.064,-3.727 -3.096,-8.084 -3.096,-13.072c0,-4.988 1.003,-9.345 3.01,-13.072c2.064,-3.727 4.931,-6.593 8.6,-8.6c3.669,-2.007 7.883,-3.01 12.642,-3.01c4.644,0 8.772,0.975 12.384,2.924c3.612,1.949 6.421,4.73 8.428,8.342c2.064,3.612 3.096,7.826 3.096,12.642zm-15.05,-3.87c0,-2.523 -0.86,-4.529 -2.58,-6.02c-1.72,-1.491 -3.87,-2.236 -6.45,-2.236c-2.465,0 -4.558,0.717 -6.278,2.15c-1.663,1.433 -2.695,3.469 -3.096,6.106l18.404,0z"/>
  <path d="M239.777 682.088L239.777 707H236.501L236.501 688.424L228.221 707H225.917L217.601 688.388L217.601 707H214.325L214.325 682.088H217.853L227.069 702.68L236.285 682.088H239.777ZM263.333 696.38C263.333 697.004 263.297 697.664 263.225 698.36H247.457C247.577 700.304 248.237 701.828 249.437 702.932C250.661 704.012 252.137 704.552 253.865 704.552C255.281 704.552 256.457 704.228 257.393 703.58C258.353 702.908 259.025 702.02 259.409 700.916H262.937C262.409 702.812 261.353 704.36 259.769 705.56C258.185 706.736 256.217 707.324 253.865 707.324C251.993 707.324 250.313 706.904 248.825 706.064C247.361 705.224 246.209 704.036 245.369 702.5C244.529 700.94 244.109 699.14 244.109 697.1C244.109 695.06 244.517 693.272 245.333 691.736C246.149 690.2 247.289 689.024 248.753 688.208C250.241 687.368 251.945 686.948 253.865 686.948C255.737 686.948 257.393 687.356 258.833 688.172C260.273 688.988 261.377 690.116 262.145 691.556C262.937 692.972 263.333 694.58 263.333 696.38ZM259.949 695.696C259.949 694.448 259.673 693.38 259.121 692.492C258.569 691.58 257.813 690.896 256.853 690.44C255.917 689.96 254.873 689.72 253.721 689.72C252.065 689.72 250.649 690.248 249.473 691.304C248.321 692.36 247.661 693.824 247.493 695.696H259.949ZM266.433 697.064C266.433 695.048 266.841 693.284 267.657 691.772C268.473 690.236 269.589 689.048 271.005 688.208C272.445 687.368 274.053 686.948 275.829 686.948C277.365 686.948 278.793 687.308 280.113 688.028C281.433 688.724 282.441 689.648 283.137 690.8L283.137 680.36H286.449L286.449 707H283.137L283.137 703.292C282.489 704.468 281.529 705.44 280.257 706.208C278.985 706.952 277.497 707.324 275.793 707.324C274.041 707.324 272.445 706.892 271.005 706.028C269.589 705.164 268.473 703.952 267.657 702.392C266.841 700.832 266.433 699.056 266.433 697.064ZM283.137 697.1C283.137 695.612 282.837 694.316 282.237 693.212C281.637 692.108 280.821 691.268 279.789 690.692C278.781 690.092 277.665 689.792 276.441 689.792C275.217 689.792 274.101 690.08 273.093 690.656C272.085 691.232 271.281 692.072 270.681 693.176C270.081 694.28 269.781 695.576 269.781 697.064C269.781 698.576 270.081 699.896 270.681 701.024C271.281 702.128 272.085 702.98 273.093 703.58C274.101 704.156 275.217 704.444 276.441 704.444C277.665 704.444 278.781 704.156 279.789 703.58C280.821 702.98 281.637 702.128 282.237 701.024C282.837 699.896 283.137 698.588 283.137 697.1ZM293.677 684.068C293.053 684.068 292.525 683.852 292.093 683.42C291.661 682.988 291.445 682.46 291.445 681.836C291.445 681.212 291.661 680.684 292.093 680.252C292.525 679.82 293.053 679.604 293.677 679.604C294.277 679.604 294.781 679.82 295.189 680.252C295.621 680.684 295.837 681.212 295.837 681.836C295.837 682.46 295.621 682.988 295.189 683.42C294.781 683.852 294.277 684.068 293.677 684.068ZM295.261 687.272L295.261 707H291.985L291.985 687.272H295.261ZM299.62 697.1C299.62 695.06 300.028 693.284 300.844 691.772C301.66 690.236 302.788 689.048 304.228 688.208C305.692 687.368 307.36 686.948 309.232 686.948C311.656 686.948 313.648 687.536 315.208 688.712C316.792 689.888 317.836 691.52 318.34 693.608H314.812C314.476 692.408 313.816 691.46 312.832 690.764C311.872 690.068 310.672 689.72 309.232 689.72C307.36 689.72 305.848 690.368 304.696 691.664C303.544 692.936 302.968 694.748 302.968 697.1C302.968 699.476 303.544 701.312 304.696 702.608C305.848 703.904 307.36 704.552 309.232 704.552C310.672 704.552 311.872 704.216 312.832 703.544C313.792 702.872 314.452 701.912 314.812 700.664H318.34C317.812 702.68 316.756 704.3 315.172 705.524C313.588 706.724 311.608 707.324 309.232 707.324C307.36 707.324 305.692 706.904 304.228 706.064C302.788 705.224 301.66 704.036 300.844 702.5C300.028 700.964 299.62 699.164 299.62 697.1ZM321.487 697.064C321.487 695.048 321.895 693.284 322.711 691.772C323.527 690.236 324.643 689.048 326.059 688.208C327.499 687.368 329.095 686.948 330.847 686.948C332.575 686.948 334.075 687.32 335.347 688.064C336.619 688.808 337.567 689.744 338.191 690.872L338.191 687.272H341.503L341.503 707H338.191L338.191 703.328C337.543 704.48 336.571 705.44 335.275 706.208C334.003 706.952 332.515 707.324 330.811 707.324C329.059 707.324 327.475 706.892 326.059 706.028C324.643 705.164 323.527 703.952 322.711 702.392C321.895 700.832 321.487 699.056 321.487 697.064ZM338.191 697.1C338.191 695.612 337.891 694.316 337.291 693.212C336.691 692.108 335.875 691.268 334.843 690.692C333.835 690.092 332.719 689.792 331.495 689.792C330.271 689.792 329.155 690.08 328.147 690.656C327.139 691.232 326.335 692.072 325.735 693.176C325.135 694.28 324.835 695.576 324.835 697.064C324.835 698.576 325.135 699.896 325.735 701.024C326.335 702.128 327.139 702.98 328.147 703.58C329.155 704.156 330.271 704.444 331.495 704.444C332.719 704.444 333.835 704.156 334.843 703.58C335.875 702.98 336.691 702.128 337.291 701.024C337.891 699.896 338.191 698.588 338.191 697.1ZM350.316 680.36L350.316 707H347.04L347.04 680.36H350.316ZM364.273 697.064C364.273 695.048 364.681 693.284 365.497 691.772C366.313 690.236 367.429 689.048 368.845 688.208C370.285 687.368 371.893 686.948 373.669 686.948C375.205 686.948 376.633 687.308 377.953 688.028C379.273 688.724 380.281 689.648 380.977 690.8L380.977 680.36H384.289L384.289 707H380.977L380.977 703.292C380.329 704.468 379.369 705.44 378.097 706.208C376.825 706.952 375.337 707.324 373.633 707.324C371.881 707.324 370.285 706.892 368.845 706.028C367.429 705.164 366.313 703.952 365.497 702.392C364.681 700.832 364.273 699.056 364.273 697.064ZM380.977 697.1C380.977 695.612 380.677 694.316 380.077 693.212C379.477 692.108 378.661 691.268 377.629 690.692C376.621 690.092 375.505 689.792 374.281 689.792C373.057 689.792 371.941 690.08 370.933 690.656C369.925 691.232 369.121 692.072 368.521 693.176C367.921 694.28 367.621 695.576 367.621 697.064C367.621 698.576 367.921 699.896 368.521 701.024C369.121 702.128 369.925 702.98 370.933 703.58C371.941 704.156 373.057 704.444 374.281 704.444C375.505 704.444 376.621 704.156 377.629 703.58C378.661 702.98 379.477 702.128 380.077 701.024C380.677 699.896 380.977 698.588 380.977 697.1ZM388.601 697.064C388.601 695.048 389.009 693.284 389.825 691.772C390.641 690.236 391.757 689.048 393.173 688.208C394.613 687.368 396.209 686.948 397.961 686.948C399.689 686.948 401.189 687.32 402.461 688.064C403.733 688.808 404.681 689.744 405.305 690.872L405.305 687.272H408.617L408.617 707H405.305L405.305 703.328C404.657 704.48 403.685 705.44 402.389 706.208C401.117 706.952 399.629 707.324 397.925 707.324C396.173 707.324 394.589 706.892 393.173 706.028C391.757 705.164 390.641 703.952 389.825 702.392C389.009 700.832 388.601 699.056 388.601 697.064ZM405.305 697.1C405.305 695.612 405.005 694.316 404.405 693.212C403.805 692.108 402.989 691.268 401.957 690.692C400.949 690.092 399.833 689.792 398.609 689.792C397.385 689.792 396.269 690.08 395.261 690.656C394.253 691.232 393.449 692.072 392.849 693.176C392.249 694.28 391.949 695.576 391.949 697.064C391.949 698.576 392.249 699.896 392.849 701.024C393.449 702.128 394.253 702.98 395.261 703.58C396.269 704.156 397.385 704.444 398.609 704.444C399.833 704.444 400.949 704.156 401.957 703.58C402.989 702.98 403.805 702.128 404.405 701.024C405.005 699.896 405.305 698.588 405.305 697.1ZM418.149 689.972L418.149 701.6C418.149 702.56 418.353 703.244 418.761 703.652C419.169 704.036 419.877 704.228 420.885 704.228H423.297L423.297 707H420.345C418.521 707 417.153 706.58 416.241 705.74C415.329 704.9 414.873 703.52 414.873 701.6L414.873 689.972H412.317L412.317 687.272H414.873L414.873 682.304H418.149L418.149 687.272H423.297L423.297 689.972H418.149ZM426.042 697.064C426.042 695.048 426.45 693.284 427.266 691.772C428.082 690.236 429.198 689.048 430.614 688.208C432.054 687.368 433.65 686.948 435.402 686.948C437.13 686.948 438.63 687.32 439.902 688.064C441.174 688.808 442.122 689.744 442.746 690.872L442.746 687.272H446.058L446.058 707H442.746L442.746 703.328C442.098 704.48 441.126 705.44 439.83 706.208C438.558 706.952 437.07 707.324 435.366 707.324C433.614 707.324 432.03 706.892 430.614 706.028C429.198 705.164 428.082 703.952 427.266 702.392C426.45 700.832 426.042 699.056 426.042 697.064ZM442.746 697.1C442.746 695.612 442.446 694.316 441.846 693.212C441.246 692.108 440.43 691.268 439.398 690.692C438.39 690.092 437.274 689.792 436.05 689.792C434.826 689.792 433.71 690.08 432.702 690.656C431.694 691.232 430.89 692.072 430.29 693.176C429.69 694.28 429.39 695.576 429.39 697.064C429.39 698.576 429.69 699.896 430.29 701.024C430.89 702.128 431.694 702.98 432.702 703.58C433.71 704.156 434.826 704.444 436.05 704.444C437.274 704.444 438.39 704.156 439.398 703.58C440.43 702.98 441.246 702.128 441.846 701.024C442.446 699.896 442.746 698.588 442.746 697.1ZM479.192 696.38C479.192 697.004 479.156 697.664 479.084 698.36H463.316C463.436 700.304 464.096 701.828 465.296 702.932C466.52 704.012 467.996 704.552 469.724 704.552C471.14 704.552 472.316 704.228 473.252 703.58C474.212 702.908 474.884 702.02 475.268 700.916H478.796C478.268 702.812 477.212 704.36 475.628 705.56C474.044 706.736 472.076 707.324 469.724 707.324C467.852 707.324 466.172 706.904 464.684 706.064C463.22 705.224 462.068 704.036 461.228 702.5C460.388 700.94 459.968 699.14 459.968 697.1C459.968 695.06 460.376 693.272 461.192 691.736C462.008 690.2 463.148 689.024 464.612 688.208C466.1 687.368 467.804 686.948 469.724 686.948C471.596 686.948 473.252 687.356 474.692 688.172C476.132 688.988 477.236 690.116 478.004 691.556C478.796 692.972 479.192 694.58 479.192 696.38ZM475.808 695.696C475.808 694.448 475.532 693.38 474.98 692.492C474.428 691.58 473.672 690.896 472.712 690.44C471.776 689.96 470.732 689.72 469.58 689.72C467.924 689.72 466.508 690.248 465.332 691.304C464.18 692.36 463.52 693.824 463.352 695.696H475.808ZM493.128 686.912C495.528 686.912 497.472 687.644 498.96 689.108C500.448 690.548 501.192 692.636 501.192 695.372L501.192 707H497.952L497.952 695.84C497.952 693.872 497.46 692.372 496.476 691.34C495.492 690.284 494.148 689.756 492.444 689.756C490.716 689.756 489.336 690.296 488.304 691.376C487.296 692.456 486.792 694.028 486.792 696.092L486.792 707H483.516L483.516 687.272H486.792L486.792 690.08C487.44 689.072 488.316 688.292 489.42 687.74C490.548 687.188 491.784 686.912 493.128 686.912ZM505.319 697.1C505.319 695.06 505.727 693.284 506.543 691.772C507.359 690.236 508.487 689.048 509.927 688.208C511.391 687.368 513.059 686.948 514.931 686.948C517.355 686.948 519.347 687.536 520.907 688.712C522.491 689.888 523.535 691.52 524.039 693.608H520.511C520.175 692.408 519.515 691.46 518.531 690.764C517.571 690.068 516.371 689.72 514.931 689.72C513.059 689.72 511.547 690.368 510.395 691.664C509.243 692.936 508.667 694.748 508.667 697.1C508.667 699.476 509.243 701.312 510.395 702.608C511.547 703.904 513.059 704.552 514.931 704.552C516.371 704.552 517.571 704.216 518.531 703.544C519.491 702.872 520.151 701.912 520.511 700.664H524.039C523.511 702.68 522.455 704.3 520.871 705.524C519.287 706.724 517.307 707.324 514.931 707.324C513.059 707.324 511.391 706.904 509.927 706.064C508.487 705.224 507.359 704.036 506.543 702.5C505.727 700.964 505.319 699.164 505.319 697.1ZM531.687 690.476C532.263 689.348 533.079 688.472 534.135 687.848C535.215 687.224 536.523 686.912 538.059 686.912L538.059 690.296H537.195C533.523 690.296 531.687 692.288 531.687 696.272L531.687 707H528.411L528.411 687.272H531.687L531.687 690.476ZM558.832 687.272L546.952 716.288H543.568L547.456 706.784L539.5 687.272H543.136L549.328 703.256L555.448 687.272H558.832ZM565.402 690.908C566.05 689.78 567.01 688.844 568.282 688.1C569.578 687.332 571.078 686.948 572.782 686.948C574.534 686.948 576.118 687.368 577.534 688.208C578.974 689.048 580.102 690.236 580.918 691.772C581.734 693.284 582.142 695.048 582.142 697.064C582.142 699.056 581.734 700.832 580.918 702.392C580.102 703.952 578.974 705.164 577.534 706.028C576.118 706.892 574.534 707.324 572.782 707.324C571.102 707.324 569.614 706.952 568.318 706.208C567.046 705.44 566.074 704.492 565.402 703.364L565.402 716.36H562.126L562.126 687.272H565.402L565.402 690.908ZM578.794 697.064C578.794 695.576 578.494 694.28 577.894 693.176C577.294 692.072 576.478 691.232 575.446 690.656C574.438 690.08 573.322 689.792 572.098 689.792C570.898 689.792 569.782 690.092 568.75 690.692C567.742 691.268 566.926 692.12 566.302 693.248C565.702 694.352 565.402 695.636 565.402 697.1C565.402 698.588 565.702 699.896 566.302 701.024C566.926 702.128 567.742 702.98 568.75 703.58C569.782 704.156 570.898 704.444 572.098 704.444C573.322 704.444 574.438 704.156 575.446 703.58C576.478 702.98 577.294 702.128 577.894 701.024C578.494 699.896 578.794 698.576 578.794 697.064ZM590.45 689.972L590.45 701.6C590.45 702.56 590.654 703.244 591.062 703.652C591.47 704.036 592.178 704.228 593.186 704.228H595.598L595.598 707H592.646C590.822 707 589.454 706.58 588.542 705.74C587.63 704.9 587.174 703.52 587.174 701.6L587.174 689.972H584.618L584.618 687.272H587.174L587.174 682.304H590.45L590.45 687.272H595.598L595.598 689.972H590.45ZM617.567 696.38C617.567 697.004 617.531 697.664 617.459 698.36H601.691C601.811 700.304 602.471 701.828 603.671 702.932C604.895 704.012 606.371 704.552 608.099 704.552C609.515 704.552 610.691 704.228 611.627 703.58C612.587 702.908 613.259 702.02 613.643 700.916H617.171C616.643 702.812 615.587 704.36 614.003 705.56C612.419 706.736 610.451 707.324 608.099 707.324C606.227 707.324 604.547 706.904 603.059 706.064C601.595 705.224 600.443 704.036 599.603 702.5C598.763 700.94 598.343 699.14 598.343 697.1C598.343 695.06 598.751 693.272 599.567 691.736C600.383 690.2 601.523 689.024 602.987 688.208C604.475 687.368 606.179 686.948 608.099 686.948C609.971 686.948 611.627 687.356 613.067 688.172C614.507 688.988 615.611 690.116 616.379 691.556C617.171 692.972 617.567 694.58 617.567 696.38ZM614.183 695.696C614.183 694.448 613.907 693.38 613.355 692.492C612.803 691.58 612.047 690.896 611.087 690.44C610.151 689.96 609.107 689.72 607.955 689.72C606.299 689.72 604.883 690.248 603.707 691.304C602.555 692.36 601.895 693.824 601.727 695.696H614.183ZM620.667 697.064C620.667 695.048 621.075 693.284 621.891 691.772C622.707 690.236 623.823 689.048 625.239 688.208C626.679 687.368 628.287 686.948 630.063 686.948C631.599 686.948 633.027 687.308 634.347 688.028C635.667 688.724 636.675 689.648 637.371 690.8L637.371 680.36H640.683L640.683 707H637.371L637.371 703.292C636.723 704.468 635.763 705.44 634.491 706.208C633.219 706.952 631.731 707.324 630.027 707.324C628.275 707.324 626.679 706.892 625.239 706.028C623.823 705.164 622.707 703.952 621.891 702.392C621.075 700.832 620.667 699.056 620.667 697.064ZM637.371 697.1C637.371 695.612 637.071 694.316 636.471 693.212C635.871 692.108 635.055 691.268 634.023 690.692C633.015 690.092 631.899 689.792 630.675 689.792C629.451 689.792 628.335 690.08 627.327 690.656C626.319 691.232 625.515 692.072 624.915 693.176C624.315 694.28 624.015 695.576 624.015 697.064C624.015 698.576 624.315 699.896 624.915 701.024C625.515 702.128 626.319 702.98 627.327 703.58C628.335 704.156 629.451 704.444 630.675 704.444C631.899 704.444 633.015 704.156 634.023 703.58C635.055 702.98 635.871 702.128 636.471 701.024C637.071 699.896 637.371 698.588 637.371 697.1Z" fill="white"/>
  <text text-anchor="middle" font-size="66" y="79%" x="50%" fill="#ffffff">Normal Heart Rate</text>
</svg>
